<svg width="1366" height="1215" viewBox="0 0 1366 1215" fill="none" xmlns="http://www.w3.org/2000/svg">
<circle opacity="0.1" cx="683" cy="392" r="771" stroke="#FFFBFC"/>
<circle opacity="0.2" cx="683" cy="392" r="665.864" stroke="#FFFBFC"/>
<circle opacity="0.3" cx="682.999" cy="392" r="549.045" stroke="#FFFBFC"/>
<circle opacity="0.4" cx="682.999" cy="392.001" r="420.545" stroke="#FFFBFC"/>
<circle opacity="0.5" cx="683.001" cy="392.001" r="303.727" stroke="#FFFBFC"/>
<circle opacity="0.7" cx="682.999" cy="392" r="186.909" stroke="#FFFBFC"/>
<rect y="696" width="1366" height="519" fill="url(#paint0_linear_2_1130)"/>
<path d="M103.712 321V292.584L108.128 304.008L78.08 253.8H98.144L119.84 290.184H108.224L130.016 253.8H148.448L118.496 304.008L122.72 292.584V321H103.712ZM182.344 322.344C176.968 322.344 172.008 321.48 167.464 319.752C162.92 318.024 158.952 315.592 155.56 312.456C152.232 309.256 149.64 305.544 147.784 301.32C145.928 297.096 145 292.456 145 287.4C145 282.344 145.928 277.704 147.784 273.48C149.64 269.256 152.232 265.576 155.56 262.44C158.952 259.24 162.92 256.776 167.464 255.048C172.008 253.32 176.968 252.456 182.344 252.456C187.784 252.456 192.744 253.32 197.224 255.048C201.768 256.776 205.704 259.24 209.032 262.44C212.36 265.576 214.952 269.256 216.808 273.48C218.728 277.704 219.688 282.344 219.688 287.4C219.688 292.456 218.728 297.128 216.808 301.416C214.952 305.64 212.36 309.32 209.032 312.456C205.704 315.592 201.768 318.024 197.224 319.752C192.744 321.48 187.784 322.344 182.344 322.344ZM182.344 306.6C184.904 306.6 187.272 306.152 189.448 305.256C191.688 304.36 193.608 303.08 195.208 301.416C196.872 299.688 198.152 297.64 199.048 295.272C200.008 292.904 200.488 290.28 200.488 287.4C200.488 284.456 200.008 281.832 199.048 279.528C198.152 277.16 196.872 275.144 195.208 273.48C193.608 271.752 191.688 270.44 189.448 269.544C187.272 268.648 184.904 268.2 182.344 268.2C179.784 268.2 177.384 268.648 175.144 269.544C172.968 270.44 171.048 271.752 169.384 273.48C167.784 275.144 166.504 277.16 165.544 279.528C164.648 281.832 164.2 284.456 164.2 287.4C164.2 290.28 164.648 292.904 165.544 295.272C166.504 297.64 167.784 299.688 169.384 301.416C171.048 303.08 172.968 304.36 175.144 305.256C177.384 306.152 179.784 306.6 182.344 306.6ZM258.732 322.344C248.812 322.344 241.068 319.624 235.5 314.184C229.932 308.744 227.148 301.032 227.148 291.048V253.8H246.156V290.472C246.156 296.232 247.276 300.36 249.516 302.856C251.82 305.352 254.956 306.6 258.924 306.6C262.892 306.6 265.996 305.352 268.236 302.856C270.476 300.36 271.596 296.232 271.596 290.472V253.8H290.316V291.048C290.316 301.032 287.532 308.744 281.964 314.184C276.396 319.624 268.652 322.344 258.732 322.344ZM301.273 321V253.8H331.993C338.137 253.8 343.417 254.792 347.833 256.776C352.313 258.76 355.769 261.64 358.201 265.416C360.633 269.128 361.849 273.544 361.849 278.664C361.849 283.72 360.633 288.104 358.201 291.816C355.769 295.464 352.313 298.28 347.833 300.264C343.417 302.184 338.137 303.144 331.993 303.144H311.833L320.281 295.176V321H301.273ZM342.841 321L326.137 296.52H346.393L363.193 321H342.841ZM320.281 297.192L311.833 288.456H330.841C334.809 288.456 337.753 287.592 339.673 285.864C341.657 284.136 342.649 281.736 342.649 278.664C342.649 275.528 341.657 273.096 339.673 271.368C337.753 269.64 334.809 268.776 330.841 268.776H311.833L320.281 260.04V297.192ZM396.432 321V253.8H412.08L449.136 298.536H441.744V253.8H460.368V321H444.72L407.664 276.264H415.056V321H396.432ZM489.328 279.816H520.528V294.024H489.328V279.816ZM490.672 306.312H525.808V321H471.856V253.8H524.56V268.488H490.672V306.312ZM550.107 321L528.315 253.8H547.899L566.235 311.976H556.347L575.643 253.8H593.115L611.355 311.976H601.851L620.763 253.8H638.907L617.115 321H596.763L581.211 271.56H586.683L570.459 321H550.107ZM640.467 300.648V286.632H668.499V300.648H640.467ZM677.877 321V253.8H712.245C721.077 253.8 727.669 255.432 732.021 258.696C736.373 261.896 738.549 266.12 738.549 271.368C738.549 274.824 737.621 277.864 735.765 280.488C733.973 283.048 731.413 285.096 728.085 286.632C724.821 288.104 720.917 288.84 716.373 288.84L718.293 284.232C723.029 284.232 727.157 284.968 730.677 286.44C734.197 287.848 736.917 289.928 738.837 292.68C740.821 295.368 741.813 298.664 741.813 302.568C741.813 308.392 739.445 312.936 734.709 316.2C730.037 319.4 723.189 321 714.165 321H677.877ZM696.693 307.272H712.629C715.893 307.272 718.357 306.728 720.021 305.64C721.749 304.488 722.613 302.76 722.613 300.456C722.613 298.152 721.749 296.456 720.021 295.368C718.357 294.216 715.893 293.64 712.629 293.64H695.349V280.488H709.749C712.949 280.488 715.349 279.944 716.949 278.856C718.549 277.768 719.349 276.136 719.349 273.96C719.349 271.784 718.549 270.184 716.949 269.16C715.349 268.072 712.949 267.528 709.749 267.528H696.693V307.272ZM749.739 321V253.8H780.459C786.603 253.8 791.883 254.792 796.299 256.776C800.779 258.76 804.235 261.64 806.667 265.416C809.099 269.128 810.315 273.544 810.315 278.664C810.315 283.72 809.099 288.104 806.667 291.816C804.235 295.464 800.779 298.28 796.299 300.264C791.883 302.184 786.603 303.144 780.459 303.144H760.299L768.747 295.176V321H749.739ZM791.307 321L774.603 296.52H794.859L811.659 321H791.307ZM768.747 297.192L760.299 288.456H779.307C783.275 288.456 786.219 287.592 788.139 285.864C790.123 284.136 791.115 281.736 791.115 278.664C791.115 275.528 790.123 273.096 788.139 271.368C786.219 269.64 783.275 268.776 779.307 268.776H760.299L768.747 260.04V297.192ZM836.353 279.816H867.553V294.024H836.353V279.816ZM837.697 306.312H872.833V321H818.881V253.8H871.585V268.488H837.697V306.312ZM898.933 279.816H930.133V294.024H898.933V279.816ZM900.277 306.312H935.413V321H881.461V253.8H934.165V268.488H900.277V306.312ZM944.041 321V253.8H975.817C983.241 253.8 989.769 255.176 995.401 257.928C1001.03 260.68 1005.42 264.552 1008.55 269.544C1011.75 274.536 1013.35 280.488 1013.35 287.4C1013.35 294.248 1011.75 300.2 1008.55 305.256C1005.42 310.248 1001.03 314.12 995.401 316.872C989.769 319.624 983.241 321 975.817 321H944.041ZM963.049 305.832H975.049C978.889 305.832 982.217 305.128 985.033 303.72C987.913 302.248 990.153 300.136 991.753 297.384C993.353 294.568 994.153 291.24 994.153 287.4C994.153 283.496 993.353 280.168 991.753 277.416C990.153 274.664 987.913 272.584 985.033 271.176C982.217 269.704 978.889 268.968 975.049 268.968H963.049V305.832ZM1016.68 336.072L1023.88 311.112L1026.47 321.48C1023.27 321.48 1020.65 320.552 1018.6 318.696C1016.55 316.776 1015.53 314.216 1015.53 311.016C1015.53 307.688 1016.55 305.064 1018.6 303.144C1020.71 301.224 1023.33 300.264 1026.47 300.264C1029.61 300.264 1032.2 301.256 1034.25 303.24C1036.29 305.16 1037.32 307.752 1037.32 311.016C1037.32 311.912 1037.25 312.808 1037.13 313.704C1037 314.6 1036.71 315.688 1036.26 316.968C1035.81 318.248 1035.11 319.944 1034.15 322.056L1028.1 336.072H1016.68Z" fill="#F5F5F5"/>
<path d="M189.72 545V477.8H221.496C228.92 477.8 235.448 479.176 241.08 481.928C246.712 484.68 251.096 488.552 254.232 493.544C257.432 498.536 259.032 504.488 259.032 511.4C259.032 518.248 257.432 524.2 254.232 529.256C251.096 534.248 246.712 538.12 241.08 540.872C235.448 543.624 228.92 545 221.496 545H189.72ZM208.728 529.832H220.728C224.568 529.832 227.896 529.128 230.712 527.72C233.592 526.248 235.832 524.136 237.432 521.384C239.032 518.568 239.832 515.24 239.832 511.4C239.832 507.496 239.032 504.168 237.432 501.416C235.832 498.664 233.592 496.584 230.712 495.176C227.896 493.704 224.568 492.968 220.728 492.968H208.728V529.832ZM267.113 545V477.8H286.121V545H267.113ZM331.324 546.344C326.012 546.344 321.084 545.512 316.54 543.848C311.996 542.12 308.06 539.688 304.732 536.552C301.468 533.416 298.908 529.736 297.052 525.512C295.196 521.224 294.268 516.52 294.268 511.4C294.268 506.28 295.196 501.608 297.052 497.384C298.908 493.096 301.5 489.384 304.828 486.248C308.156 483.112 312.092 480.712 316.636 479.048C321.244 477.32 326.268 476.456 331.708 476.456C338.044 476.456 343.708 477.512 348.7 479.624C353.692 481.736 357.82 484.776 361.084 488.744L348.988 499.688C346.684 497.192 344.188 495.336 341.5 494.12C338.876 492.84 335.932 492.2 332.668 492.2C329.788 492.2 327.164 492.648 324.796 493.544C322.428 494.44 320.412 495.752 318.748 497.48C317.084 499.144 315.772 501.16 314.812 503.528C313.916 505.832 313.468 508.456 313.468 511.4C313.468 514.216 313.916 516.808 314.812 519.176C315.772 521.544 317.084 523.592 318.748 525.32C320.412 526.984 322.396 528.296 324.7 529.256C327.068 530.152 329.66 530.6 332.476 530.6C335.292 530.6 338.044 530.152 340.732 529.256C343.42 528.296 346.14 526.696 348.892 524.456L359.548 537.8C355.708 540.552 351.26 542.664 346.204 544.136C341.148 545.608 336.188 546.344 331.324 546.344ZM342.748 535.304V509.96H359.548V537.8L342.748 535.304ZM369.679 545V477.8H388.687V545H369.679ZM414.594 545V492.872H393.954V477.8H454.146V492.872H433.602V545H414.594ZM447.868 545L477.532 477.8H496.252L526.012 545H506.236L483.004 487.112H490.492L467.26 545H447.868ZM464.092 531.944L468.988 517.928H501.82L506.716 531.944H464.092ZM529.481 545V477.8H548.489V529.928H580.553V545H529.481ZM604.109 545L633.773 477.8H652.493L682.253 545H662.477L639.245 487.112H646.733L623.501 545H604.109ZM620.333 531.944L625.229 517.928H658.061L662.957 531.944H620.333ZM685.721 545V477.8H704.729V529.928H736.793V545H685.721ZM742.395 545V477.8H761.403V529.928H793.467V545H742.395ZM809.217 545V516.584L813.633 528.008L783.585 477.8H803.649L825.345 514.184H813.729L835.521 477.8H853.953L824.001 528.008L828.225 516.584V545H809.217Z" fill="#F5F5F5"/>
<path d="M669.816 391.816H701.016V406.024H669.816V391.816ZM671.16 418.312H706.296V433H652.344V365.8H705.048V380.488H671.16V418.312ZM714.924 433V365.8H730.572L767.628 410.536H760.236V365.8H778.86V433H763.212L726.156 388.264H733.548V433H714.924ZM790.348 433V365.8H822.124C829.548 365.8 836.076 367.176 841.708 369.928C847.34 372.68 851.724 376.552 854.86 381.544C858.06 386.536 859.66 392.488 859.66 399.4C859.66 406.248 858.06 412.2 854.86 417.256C851.724 422.248 847.34 426.12 841.708 428.872C836.076 431.624 829.548 433 822.124 433H790.348ZM809.356 417.832H821.356C825.196 417.832 828.524 417.128 831.34 415.72C834.22 414.248 836.46 412.136 838.06 409.384C839.66 406.568 840.46 403.24 840.46 399.4C840.46 395.496 839.66 392.168 838.06 389.416C836.46 386.664 834.22 384.584 831.34 383.176C828.524 381.704 825.196 380.968 821.356 380.968H809.356V417.832ZM865.816 412.648V398.632H893.848V412.648H865.816ZM913.874 433V380.872H893.234V365.8H953.426V380.872H932.882V433H913.874ZM991.538 434.344C986.162 434.344 981.202 433.48 976.658 431.752C972.114 430.024 968.146 427.592 964.754 424.456C961.426 421.256 958.834 417.544 956.978 413.32C955.122 409.096 954.194 404.456 954.194 399.4C954.194 394.344 955.122 389.704 956.978 385.48C958.834 381.256 961.426 377.576 964.754 374.44C968.146 371.24 972.114 368.776 976.658 367.048C981.202 365.32 986.162 364.456 991.538 364.456C996.978 364.456 1001.94 365.32 1006.42 367.048C1010.96 368.776 1014.9 371.24 1018.23 374.44C1021.55 377.576 1024.15 381.256 1026 385.48C1027.92 389.704 1028.88 394.344 1028.88 399.4C1028.88 404.456 1027.92 409.128 1026 413.416C1024.15 417.64 1021.55 421.32 1018.23 424.456C1014.9 427.592 1010.96 430.024 1006.42 431.752C1001.94 433.48 996.978 434.344 991.538 434.344ZM991.538 418.6C994.098 418.6 996.466 418.152 998.642 417.256C1000.88 416.36 1002.8 415.08 1004.4 413.416C1006.07 411.688 1007.35 409.64 1008.24 407.272C1009.2 404.904 1009.68 402.28 1009.68 399.4C1009.68 396.456 1009.2 393.832 1008.24 391.528C1007.35 389.16 1006.07 387.144 1004.4 385.48C1002.8 383.752 1000.88 382.44 998.642 381.544C996.466 380.648 994.098 380.2 991.538 380.2C988.978 380.2 986.578 380.648 984.338 381.544C982.162 382.44 980.242 383.752 978.578 385.48C976.978 387.144 975.698 389.16 974.738 391.528C973.842 393.832 973.394 396.456 973.394 399.4C973.394 402.28 973.842 404.904 974.738 407.272C975.698 409.64 976.978 411.688 978.578 413.416C980.242 415.08 982.162 416.36 984.338 417.256C986.578 418.152 988.978 418.6 991.538 418.6ZM1034.99 412.648V398.632H1063.03V412.648H1034.99ZM1089.88 391.816H1121.08V406.024H1089.88V391.816ZM1091.22 418.312H1126.36V433H1072.4V365.8H1125.11V380.488H1091.22V418.312ZM1134.98 433V365.8H1150.63L1187.69 410.536H1180.3V365.8H1198.92V433H1183.27L1146.22 388.264H1153.61V433H1134.98ZM1210.41 433V365.8H1242.18C1249.61 365.8 1256.14 367.176 1261.77 369.928C1267.4 372.68 1271.78 376.552 1274.92 381.544C1278.12 386.536 1279.72 392.488 1279.72 399.4C1279.72 406.248 1278.12 412.2 1274.92 417.256C1271.78 422.248 1267.4 426.12 1261.77 428.872C1256.14 431.624 1249.61 433 1242.18 433H1210.41ZM1229.42 417.832H1241.42C1245.26 417.832 1248.58 417.128 1251.4 415.72C1254.28 414.248 1256.52 412.136 1258.12 409.384C1259.72 406.568 1260.52 403.24 1260.52 399.4C1260.52 395.496 1259.72 392.168 1258.12 389.416C1256.52 386.664 1254.28 384.584 1251.4 383.176C1248.58 381.704 1245.26 380.968 1241.42 380.968H1229.42V417.832Z" fill="#F5F5F5"/>
<defs>
<linearGradient id="paint0_linear_2_1130" x1="683" y1="696" x2="683" y2="1215" gradientUnits="userSpaceOnUse">
<stop stop-color="#010101" stop-opacity="0"/>
<stop offset="1" stop-color="#010101"/>
</linearGradient>
</defs>
</svg>
