<svg width="845" height="157" viewBox="0 0 845 157" fill="none" xmlns="http://www.w3.org/2000/svg">
<g filter="url(#filter0_d_2_1073)">
<path d="M30.726 64.232C25.6806 64.232 20.8113 63.616 16.118 62.384C11.4833 61.0933 7.6993 59.4507 4.76597 57.456L10.486 44.608C13.2433 46.368 16.4113 47.8347 19.99 49.008C23.6273 50.1227 27.2353 50.68 30.814 50.68C33.2193 50.68 35.1553 50.4747 36.622 50.064C38.0886 49.5947 39.1446 49.008 39.79 48.304C40.494 47.5413 40.846 46.6613 40.846 45.664C40.846 44.256 40.2006 43.1413 38.91 42.32C37.6193 41.4987 35.9473 40.824 33.894 40.296C31.8406 39.768 29.5526 39.24 27.03 38.712C24.566 38.184 22.0726 37.5093 19.55 36.688C17.086 35.8667 14.8273 34.8107 12.774 33.52C10.7206 32.1707 9.04864 30.44 7.75797 28.328C6.4673 26.1573 5.82197 23.4293 5.82197 20.144C5.82197 16.448 6.8193 13.104 8.81397 10.112C10.8673 7.12 13.918 4.71467 17.966 2.896C22.014 1.07733 27.0593 0.167996 33.102 0.167996C37.15 0.167996 41.11 0.63733 44.982 1.576C48.9126 2.456 52.4033 3.776 55.454 5.536L50.086 18.472C47.1526 16.888 44.2486 15.7147 41.374 14.952C38.4993 14.1307 35.7126 13.72 33.014 13.72C30.6086 13.72 28.6726 13.984 27.206 14.512C25.7393 14.9813 24.6833 15.6267 24.038 16.448C23.3926 17.2693 23.07 18.208 23.07 19.264C23.07 20.6133 23.686 21.6987 24.918 22.52C26.2086 23.2827 27.8806 23.928 29.934 24.456C32.046 24.9253 34.334 25.424 36.798 25.952C39.3206 26.48 41.814 27.1547 44.278 27.976C46.8006 28.7387 49.0886 29.7947 51.142 31.144C53.1953 32.4347 54.838 34.1653 56.07 36.336C57.3606 38.448 58.006 41.1173 58.006 44.344C58.006 47.9227 56.9793 51.2373 54.926 54.288C52.9313 57.28 49.91 59.6853 45.862 61.504C41.8726 63.3227 36.8273 64.232 30.726 64.232ZM94.4785 64.232C85.3852 64.232 78.2865 61.7387 73.1825 56.752C68.0785 51.7653 65.5265 44.696 65.5265 35.544V1.4H82.9505V35.016C82.9505 40.296 83.9772 44.08 86.0305 46.368C88.1425 48.656 91.0172 49.8 94.6545 49.8C98.2919 49.8 101.137 48.656 103.191 46.368C105.244 44.08 106.271 40.296 106.271 35.016V1.4H123.431V35.544C123.431 44.696 120.879 51.7653 115.775 56.752C110.671 61.7387 103.572 64.232 94.4785 64.232ZM135.234 63V1.4H163.394C169.026 1.4 173.866 2.30933 177.914 4.128C182.021 5.94667 185.189 8.58666 187.418 12.048C189.648 15.4507 190.762 19.4987 190.762 24.192C190.762 28.8267 189.648 32.8453 187.418 36.248C185.189 39.6507 182.021 42.2907 177.914 44.168C173.866 45.9867 169.026 46.896 163.394 46.896H144.914L152.658 39.328V63H135.234ZM152.658 41.176L144.914 33.168H162.338C165.976 33.168 168.674 32.376 170.434 30.792C172.253 29.208 173.162 27.008 173.162 24.192C173.162 21.3173 172.253 19.088 170.434 17.504C168.674 15.92 165.976 15.128 162.338 15.128H144.914L152.658 7.12V41.176ZM215.274 25.248H243.874V38.272H215.274V25.248ZM216.506 49.536H248.714V63H199.258V1.4H247.57V14.864H216.506V49.536ZM258.383 63V1.4H286.543C292.175 1.4 297.015 2.30933 301.063 4.128C305.169 5.94667 308.337 8.58666 310.567 12.048C312.796 15.4507 313.911 19.4987 313.911 24.192C313.911 28.8267 312.796 32.8453 310.567 36.248C308.337 39.592 305.169 42.1733 301.063 43.992C297.015 45.752 292.175 46.632 286.543 46.632H268.063L275.807 39.328V63H258.383ZM296.487 63L281.175 40.56H299.743L315.143 63H296.487ZM275.807 41.176L268.063 33.168H285.487C289.124 33.168 291.823 32.376 293.583 30.792C295.401 29.208 296.311 27.008 296.311 24.192C296.311 21.3173 295.401 19.088 293.583 17.504C291.823 15.92 289.124 15.128 285.487 15.128H268.063L275.807 7.12V41.176Z" fill="url(#paint0_linear_2_1073)"/>
<path d="M349.133 63V1.4H377.293C382.925 1.4 387.765 2.30933 391.813 4.128C395.919 5.94667 399.087 8.58666 401.317 12.048C403.546 15.4507 404.661 19.4987 404.661 24.192C404.661 28.8267 403.546 32.8453 401.317 36.248C399.087 39.6507 395.919 42.2907 391.813 44.168C387.765 45.9867 382.925 46.896 377.293 46.896H358.813L366.557 39.328V63H349.133ZM366.557 41.176L358.813 33.168H376.237C379.874 33.168 382.573 32.376 384.333 30.792C386.151 29.208 387.061 27.008 387.061 24.192C387.061 21.3173 386.151 19.088 384.333 17.504C382.573 15.92 379.874 15.128 376.237 15.128H358.813L366.557 7.12V41.176ZM413.156 63V1.4H441.316C446.948 1.4 451.788 2.30933 455.836 4.128C459.943 5.94667 463.111 8.58666 465.34 12.048C467.569 15.4507 468.684 19.4987 468.684 24.192C468.684 28.8267 467.569 32.8453 465.34 36.248C463.111 39.592 459.943 42.1733 455.836 43.992C451.788 45.752 446.948 46.632 441.316 46.632H422.836L430.58 39.328V63H413.156ZM451.26 63L435.948 40.56H454.516L469.916 63H451.26ZM430.58 41.176L422.836 33.168H440.26C443.897 33.168 446.596 32.376 448.356 30.792C450.175 29.208 451.084 27.008 451.084 24.192C451.084 21.3173 450.175 19.088 448.356 17.504C446.596 15.92 443.897 15.128 440.26 15.128H422.836L430.58 7.12V41.176ZM509.361 64.232C504.433 64.232 499.886 63.44 495.721 61.856C491.555 60.272 487.918 58.0427 484.809 55.168C481.758 52.2347 479.382 48.832 477.681 44.96C475.979 41.088 475.129 36.8347 475.129 32.2C475.129 27.5653 475.979 23.312 477.681 19.44C479.382 15.568 481.758 12.1947 484.809 9.32C487.918 6.38666 491.555 4.128 495.721 2.544C499.886 0.959996 504.433 0.167996 509.361 0.167996C514.347 0.167996 518.894 0.959996 523.001 2.544C527.166 4.128 530.774 6.38666 533.825 9.32C536.875 12.1947 539.251 15.568 540.953 19.44C542.713 23.312 543.593 27.5653 543.593 32.2C543.593 36.8347 542.713 41.1173 540.953 45.048C539.251 48.92 536.875 52.2933 533.825 55.168C530.774 58.0427 527.166 60.272 523.001 61.856C518.894 63.44 514.347 64.232 509.361 64.232ZM509.361 49.8C511.707 49.8 513.878 49.3893 515.873 48.568C517.926 47.7467 519.686 46.5733 521.153 45.048C522.678 43.464 523.851 41.5867 524.673 39.416C525.553 37.2453 525.993 34.84 525.993 32.2C525.993 29.5013 525.553 27.096 524.673 24.984C523.851 22.8133 522.678 20.9653 521.153 19.44C519.686 17.856 517.926 16.6533 515.873 15.832C513.878 15.0107 511.707 14.6 509.361 14.6C507.014 14.6 504.814 15.0107 502.761 15.832C500.766 16.6533 499.006 17.856 497.481 19.44C496.014 20.9653 494.841 22.8133 493.961 24.984C493.139 27.096 492.729 29.5013 492.729 32.2C492.729 34.84 493.139 37.2453 493.961 39.416C494.841 41.5867 496.014 43.464 497.481 45.048C499.006 46.5733 500.766 47.7467 502.761 48.568C504.814 49.3893 507.014 49.8 509.361 49.8ZM581.143 64.232C572.049 64.232 564.951 61.7387 559.847 56.752C554.743 51.7653 552.191 44.696 552.191 35.544V1.4H569.615V35.016C569.615 40.296 570.641 44.08 572.695 46.368C574.807 48.656 577.681 49.8 581.319 49.8C584.956 49.8 587.801 48.656 589.855 46.368C591.908 44.08 592.935 40.296 592.935 35.016V1.4H610.095V35.544C610.095 44.696 607.543 51.7653 602.439 56.752C597.335 61.7387 590.236 64.232 581.143 64.232ZM621.898 63V1.4H651.026C657.832 1.4 663.816 2.66133 668.978 5.184C674.141 7.70667 678.16 11.256 681.034 15.832C683.968 20.408 685.434 25.864 685.434 32.2C685.434 38.4773 683.968 43.9333 681.034 48.568C678.16 53.144 674.141 56.6933 668.978 59.216C663.816 61.7387 657.832 63 651.026 63H621.898ZM639.322 49.096H650.322C653.842 49.096 656.893 48.4507 659.474 47.16C662.114 45.8107 664.168 43.8747 665.634 41.352C667.101 38.7707 667.834 35.72 667.834 32.2C667.834 28.6213 667.101 25.5707 665.634 23.048C664.168 20.5253 662.114 18.6187 659.474 17.328C656.893 15.9787 653.842 15.304 650.322 15.304H639.322V49.096ZM733.323 63V15.216H714.403V1.4H769.579V15.216H750.747V63H733.323ZM806.275 64.232C801.347 64.232 796.8 63.44 792.635 61.856C788.469 60.272 784.832 58.0427 781.723 55.168C778.672 52.2347 776.296 48.832 774.595 44.96C772.893 41.088 772.043 36.8347 772.043 32.2C772.043 27.5653 772.893 23.312 774.595 19.44C776.296 15.568 778.672 12.1947 781.723 9.32C784.832 6.38666 788.469 4.128 792.635 2.544C796.8 0.959996 801.347 0.167996 806.275 0.167996C811.261 0.167996 815.808 0.959996 819.915 2.544C824.08 4.128 827.688 6.38666 830.739 9.32C833.789 12.1947 836.165 15.568 837.867 19.44C839.627 23.312 840.507 27.5653 840.507 32.2C840.507 36.8347 839.627 41.1173 837.867 45.048C836.165 48.92 833.789 52.2933 830.739 55.168C827.688 58.0427 824.08 60.272 819.915 61.856C815.808 63.44 811.261 64.232 806.275 64.232ZM806.275 49.8C808.621 49.8 810.792 49.3893 812.787 48.568C814.84 47.7467 816.6 46.5733 818.067 45.048C819.592 43.464 820.765 41.5867 821.587 39.416C822.467 37.2453 822.907 34.84 822.907 32.2C822.907 29.5013 822.467 27.096 821.587 24.984C820.765 22.8133 819.592 20.9653 818.067 19.44C816.6 17.856 814.84 16.6533 812.787 15.832C810.792 15.0107 808.621 14.6 806.275 14.6C803.928 14.6 801.728 15.0107 799.675 15.832C797.68 16.6533 795.92 17.856 794.395 19.44C792.928 20.9653 791.755 22.8133 790.875 24.984C790.053 27.096 789.643 29.5013 789.643 32.2C789.643 34.84 790.053 37.2453 790.875 39.416C791.755 41.5867 792.928 43.464 794.395 45.048C795.92 46.5733 797.68 47.7467 799.675 48.568C801.728 49.3893 803.928 49.8 806.275 49.8ZM160.943 147L140.967 85.4H158.919L175.727 138.728H166.663L184.351 85.4H200.367L217.087 138.728H208.375L225.711 85.4H242.343L222.367 147H203.711L189.455 101.68H194.471L179.599 147H160.943ZM278.876 148.232C273.948 148.232 269.402 147.44 265.236 145.856C261.071 144.272 257.434 142.043 254.324 139.168C251.274 136.235 248.898 132.832 247.196 128.96C245.495 125.088 244.644 120.835 244.644 116.2C244.644 111.565 245.495 107.312 247.196 103.44C248.898 99.568 251.274 96.1947 254.324 93.32C257.434 90.3867 261.071 88.128 265.236 86.544C269.402 84.96 273.948 84.168 278.876 84.168C283.863 84.168 288.41 84.96 292.516 86.544C296.682 88.128 300.29 90.3867 303.34 93.32C306.391 96.1947 308.767 99.568 310.468 103.44C312.228 107.312 313.108 111.565 313.108 116.2C313.108 120.835 312.228 125.117 310.468 129.048C308.767 132.92 306.391 136.293 303.34 139.168C300.29 142.043 296.682 144.272 292.516 145.856C288.41 147.44 283.863 148.232 278.876 148.232ZM278.876 133.8C281.223 133.8 283.394 133.389 285.388 132.568C287.442 131.747 289.202 130.573 290.668 129.048C292.194 127.464 293.367 125.587 294.188 123.416C295.068 121.245 295.508 118.84 295.508 116.2C295.508 113.501 295.068 111.096 294.188 108.984C293.367 106.813 292.194 104.965 290.668 103.44C289.202 101.856 287.442 100.653 285.388 99.832C283.394 99.0107 281.223 98.6 278.876 98.6C276.53 98.6 274.33 99.0107 272.276 99.832C270.282 100.653 268.522 101.856 266.996 103.44C265.53 104.965 264.356 106.813 263.476 108.984C262.655 111.096 262.244 113.501 262.244 116.2C262.244 118.84 262.655 121.245 263.476 123.416C264.356 125.587 265.53 127.464 266.996 129.048C268.522 130.573 270.282 131.747 272.276 132.568C274.33 133.389 276.53 133.8 278.876 133.8ZM322.234 147V85.4H350.394C356.026 85.4 360.866 86.3093 364.914 88.128C369.021 89.9467 372.189 92.5867 374.418 96.048C376.648 99.4507 377.762 103.499 377.762 108.192C377.762 112.827 376.648 116.845 374.418 120.248C372.189 123.592 369.021 126.173 364.914 127.992C360.866 129.752 356.026 130.632 350.394 130.632H331.914L339.658 123.328V147H322.234ZM360.338 147L345.026 124.56H363.594L378.994 147H360.338ZM339.658 125.176L331.914 117.168H349.338C352.976 117.168 355.674 116.376 357.434 114.792C359.253 113.208 360.162 111.008 360.162 108.192C360.162 105.317 359.253 103.088 357.434 101.504C355.674 99.92 352.976 99.128 349.338 99.128H331.914L339.658 91.12V125.176ZM402.951 133.36L401.983 113.824L428.471 85.4H447.655L421.255 114L411.575 124.12L402.951 133.36ZM387.375 147V85.4H404.623V147H387.375ZM428.735 147L408.671 121.568L420.023 109.424L448.975 147H428.735ZM494.38 147L474.404 85.4H492.356L509.164 138.728H500.1L517.788 85.4H533.804L550.524 138.728H541.812L559.148 85.4H575.78L555.804 147H537.148L522.892 101.68H527.908L513.036 147H494.38ZM582.023 147V85.4H599.447V147H582.023ZM624.956 147V99.216H606.036V85.4H661.212V99.216H642.38V147H624.956ZM708.887 85.4H726.311V147H708.887V85.4ZM685.127 147H667.703V85.4H685.127V147ZM710.119 122.976H683.895V108.544H710.119V122.976Z" fill="white"/>
</g>
<defs>
<filter id="filter0_d_2_1073" x="0.765869" y="0.167969" width="843.741" height="156.064" filterUnits="userSpaceOnUse" color-interpolation-filters="sRGB">
<feFlood flood-opacity="0" result="BackgroundImageFix"/>
<feColorMatrix in="SourceAlpha" type="matrix" values="0 0 0 0 0 0 0 0 0 0 0 0 0 0 0 0 0 0 127 0" result="hardAlpha"/>
<feOffset dy="4"/>
<feGaussianBlur stdDeviation="2"/>
<feComposite in2="hardAlpha" operator="out"/>
<feColorMatrix type="matrix" values="0 0 0 0 0 0 0 0 0 0 0 0 0 0 0 0 0 0 0.25 0"/>
<feBlend mode="normal" in2="BackgroundImageFix" result="effect1_dropShadow_2_1073"/>
<feBlend mode="normal" in="SourceGraphic" in2="effect1_dropShadow_2_1073" result="shape"/>
</filter>
<linearGradient id="paint0_linear_2_1073" x1="-64" y1="-1.49998" x2="260.5" y2="63" gradientUnits="userSpaceOnUse">
<stop stop-color="#9747FF"/>
<stop offset="1" stop-color="#96BFFD"/>
</linearGradient>
</defs>
</svg>
