<svg width="296" height="66" viewBox="0 0 296 66" fill="none" xmlns="http://www.w3.org/2000/svg">
<path d="M24.2343 25.49C22.2277 25.49 20.291 25.245 18.4243 24.755C16.581 24.2417 15.076 23.5883 13.9093 22.795L16.1843 17.685C17.281 18.385 18.541 18.9683 19.9643 19.435C21.411 19.8783 22.846 20.1 24.2693 20.1C25.226 20.1 25.996 20.0183 26.5793 19.855C27.1627 19.6683 27.5827 19.435 27.8393 19.155C28.1193 18.8517 28.2593 18.5017 28.2593 18.105C28.2593 17.545 28.0027 17.1017 27.4893 16.775C26.976 16.4483 26.311 16.18 25.4943 15.97C24.6777 15.76 23.7676 15.55 22.7643 15.34C21.7843 15.13 20.7927 14.8617 19.7893 14.535C18.8093 14.2083 17.911 13.7883 17.0943 13.275C16.2776 12.7383 15.6126 12.05 15.0993 11.21C14.586 10.3467 14.3293 9.26167 14.3293 7.955C14.3293 6.485 14.726 5.155 15.5193 3.965C16.336 2.775 17.5493 1.81833 19.1593 1.095C20.7693 0.371665 22.776 0.00999838 25.1793 0.00999838C26.7893 0.00999838 28.3643 0.196665 29.9043 0.57C31.4677 0.919999 32.856 1.445 34.0693 2.145L31.9343 7.29C30.7677 6.66 29.6127 6.19333 28.4693 5.89C27.326 5.56333 26.2177 5.4 25.1443 5.4C24.1877 5.4 23.4177 5.505 22.8343 5.715C22.251 5.90167 21.831 6.15833 21.5743 6.485C21.3177 6.81167 21.1893 7.185 21.1893 7.605C21.1893 8.14167 21.4343 8.57333 21.9243 8.9C22.4377 9.20333 23.1027 9.46 23.9193 9.67C24.7593 9.85667 25.6693 10.055 26.6493 10.265C27.6527 10.475 28.6443 10.7433 29.6243 11.07C30.6277 11.3733 31.5377 11.7933 32.3543 12.33C33.171 12.8433 33.8243 13.5317 34.3143 14.395C34.8277 15.235 35.0843 16.2967 35.0843 17.58C35.0843 19.0033 34.676 20.3217 33.8593 21.535C33.066 22.725 31.8643 23.6817 30.2543 24.405C28.6677 25.1283 26.661 25.49 24.2343 25.49ZM49.5904 25.49C45.9738 25.49 43.1504 24.4983 41.1204 22.515C39.0904 20.5317 38.0754 17.72 38.0754 14.08V0.499998H45.0055V13.87C45.0055 15.97 45.4138 17.475 46.2304 18.385C47.0704 19.295 48.2138 19.75 49.6604 19.75C51.1071 19.75 52.2388 19.295 53.0554 18.385C53.8721 17.475 54.2804 15.97 54.2804 13.87V0.499998H61.1055V14.08C61.1055 17.72 60.0905 20.5317 58.0605 22.515C56.0305 24.4983 53.2071 25.49 49.5904 25.49ZM65.8001 25V0.499998H77.0001C79.2401 0.499998 81.1651 0.861665 82.7751 1.585C84.4084 2.30833 85.6684 3.35833 86.5551 4.735C87.4418 6.08833 87.8851 7.69833 87.8851 9.565C87.8851 11.4083 87.4418 13.0067 86.5551 14.36C85.6684 15.7133 84.4084 16.7633 82.7751 17.51C81.1651 18.2333 79.2401 18.595 77.0001 18.595H69.6501L72.7301 15.585V25H65.8001ZM72.7301 16.32L69.6501 13.135H76.5801C78.0268 13.135 79.1001 12.82 79.8001 12.19C80.5234 11.56 80.8851 10.685 80.8851 9.565C80.8851 8.42167 80.5234 7.535 79.8001 6.905C79.1001 6.275 78.0268 5.96 76.5801 5.96H69.6501L72.7301 2.775V16.32ZM97.634 9.985H109.009V15.165H97.634V9.985ZM98.124 19.645H110.934V25H91.264V0.499998H110.479V5.855H98.124V19.645ZM114.78 25V0.499998H125.98C128.22 0.499998 130.145 0.861665 131.755 1.585C133.388 2.30833 134.648 3.35833 135.535 4.735C136.421 6.08833 136.865 7.69833 136.865 9.565C136.865 11.4083 136.421 13.0067 135.535 14.36C134.648 15.69 133.388 16.7167 131.755 17.44C130.145 18.14 128.22 18.49 125.98 18.49H118.63L121.71 15.585V25H114.78ZM129.935 25L123.845 16.075H131.23L137.355 25H129.935ZM121.71 16.32L118.63 13.135H125.56C127.006 13.135 128.08 12.82 128.78 12.19C129.503 11.56 129.865 10.685 129.865 9.565C129.865 8.42167 129.503 7.535 128.78 6.905C128.08 6.275 127.006 5.96 125.56 5.96H118.63L121.71 2.775V16.32Z" fill="url(#paint0_linear_2_1535)"/>
<path d="M150.873 25V0.499998H162.073C164.313 0.499998 166.238 0.861665 167.848 1.585C169.482 2.30833 170.742 3.35833 171.628 4.735C172.515 6.08833 172.958 7.69833 172.958 9.565C172.958 11.4083 172.515 13.0067 171.628 14.36C170.742 15.7133 169.482 16.7633 167.848 17.51C166.238 18.2333 164.313 18.595 162.073 18.595H154.723L157.803 15.585V25H150.873ZM157.803 16.32L154.723 13.135H161.653C163.1 13.135 164.173 12.82 164.873 12.19C165.597 11.56 165.958 10.685 165.958 9.565C165.958 8.42167 165.597 7.535 164.873 6.905C164.173 6.275 163.1 5.96 161.653 5.96H154.723L157.803 2.775V16.32ZM176.337 25V0.499998H187.537C189.777 0.499998 191.702 0.861665 193.312 1.585C194.946 2.30833 196.206 3.35833 197.092 4.735C197.979 6.08833 198.422 7.69833 198.422 9.565C198.422 11.4083 197.979 13.0067 197.092 14.36C196.206 15.69 194.946 16.7167 193.312 17.44C191.702 18.14 189.777 18.49 187.537 18.49H180.187L183.267 15.585V25H176.337ZM191.492 25L185.402 16.075H192.787L198.912 25H191.492ZM183.267 16.32L180.187 13.135H187.117C188.564 13.135 189.637 12.82 190.337 12.19C191.061 11.56 191.422 10.685 191.422 9.565C191.422 8.42167 191.061 7.535 190.337 6.905C189.637 6.275 188.564 5.96 187.117 5.96H180.187L183.267 2.775V16.32ZM214.6 25.49C212.64 25.49 210.832 25.175 209.175 24.545C207.519 23.915 206.072 23.0283 204.835 21.885C203.622 20.7183 202.677 19.365 202 17.825C201.324 16.285 200.985 14.5933 200.985 12.75C200.985 10.9067 201.324 9.215 202 7.675C202.677 6.135 203.622 4.79333 204.835 3.65C206.072 2.48333 207.519 1.585 209.175 0.954999C210.832 0.324998 212.64 0.00999838 214.6 0.00999838C216.584 0.00999838 218.392 0.324998 220.025 0.954999C221.682 1.585 223.117 2.48333 224.33 3.65C225.544 4.79333 226.489 6.135 227.165 7.675C227.865 9.215 228.215 10.9067 228.215 12.75C228.215 14.5933 227.865 16.2967 227.165 17.86C226.489 19.4 225.544 20.7417 224.33 21.885C223.117 23.0283 221.682 23.915 220.025 24.545C218.392 25.175 216.584 25.49 214.6 25.49ZM214.6 19.75C215.534 19.75 216.397 19.5867 217.19 19.26C218.007 18.9333 218.707 18.4667 219.29 17.86C219.897 17.23 220.364 16.4833 220.69 15.62C221.04 14.7567 221.215 13.8 221.215 12.75C221.215 11.6767 221.04 10.72 220.69 9.88C220.364 9.01667 219.897 8.28167 219.29 7.675C218.707 7.045 218.007 6.56667 217.19 6.24C216.397 5.91333 215.534 5.75 214.6 5.75C213.667 5.75 212.792 5.91333 211.975 6.24C211.182 6.56667 210.482 7.045 209.875 7.675C209.292 8.28167 208.825 9.01667 208.475 9.88C208.149 10.72 207.985 11.6767 207.985 12.75C207.985 13.8 208.149 14.7567 208.475 15.62C208.825 16.4833 209.292 17.23 209.875 17.86C210.482 18.4667 211.182 18.9333 211.975 19.26C212.792 19.5867 213.667 19.75 214.6 19.75ZM243.15 25.49C239.533 25.49 236.71 24.4983 234.68 22.515C232.65 20.5317 231.635 17.72 231.635 14.08V0.499998H238.565V13.87C238.565 15.97 238.973 17.475 239.79 18.385C240.63 19.295 241.773 19.75 243.22 19.75C244.667 19.75 245.798 19.295 246.615 18.385C247.432 17.475 247.84 15.97 247.84 13.87V0.499998H254.665V14.08C254.665 17.72 253.65 20.5317 251.62 22.515C249.59 24.4983 246.767 25.49 243.15 25.49ZM259.36 25V0.499998H270.945C273.651 0.499998 276.031 1.00167 278.085 2.005C280.138 3.00833 281.736 4.42 282.88 6.24C284.046 8.06 284.63 10.23 284.63 12.75C284.63 15.2467 284.046 17.4167 282.88 19.26C281.736 21.08 280.138 22.4917 278.085 23.495C276.031 24.4983 273.651 25 270.945 25H259.36ZM266.29 19.47H270.665C272.065 19.47 273.278 19.2133 274.305 18.7C275.355 18.1633 276.171 17.3933 276.755 16.39C277.338 15.3633 277.63 14.15 277.63 12.75C277.63 11.3267 277.338 10.1133 276.755 9.11C276.171 8.10667 275.355 7.34833 274.305 6.835C273.278 6.29833 272.065 6.03 270.665 6.03H266.29V19.47ZM8.43209 65V45.995H0.90709V40.5H22.8521V45.995H15.3621V65H8.43209ZM37.4471 65.49C35.4871 65.49 33.6788 65.175 32.0221 64.545C30.3654 63.915 28.9188 63.0283 27.6821 61.885C26.4688 60.7183 25.5238 59.365 24.8471 57.825C24.1704 56.285 23.8321 54.5933 23.8321 52.75C23.8321 50.9067 24.1704 49.215 24.8471 47.675C25.5238 46.135 26.4688 44.7933 27.6821 43.65C28.9188 42.4833 30.3654 41.585 32.0221 40.955C33.6788 40.325 35.4871 40.01 37.4471 40.01C39.4304 40.01 41.2388 40.325 42.8721 40.955C44.5288 41.585 45.9638 42.4833 47.1771 43.65C48.3904 44.7933 49.3354 46.135 50.0121 47.675C50.7121 49.215 51.0621 50.9067 51.0621 52.75C51.0621 54.5933 50.7121 56.2967 50.0121 57.86C49.3354 59.4 48.3904 60.7417 47.1771 61.885C45.9638 63.0283 44.5288 63.915 42.8721 64.545C41.2388 65.175 39.4304 65.49 37.4471 65.49ZM37.4471 59.75C38.3804 59.75 39.2438 59.5867 40.0371 59.26C40.8538 58.9333 41.5538 58.4667 42.1371 57.86C42.7438 57.23 43.2104 56.4833 43.5371 55.62C43.8871 54.7567 44.0621 53.8 44.0621 52.75C44.0621 51.6767 43.8871 50.72 43.5371 49.88C43.2104 49.0167 42.7438 48.2817 42.1371 47.675C41.5538 47.045 40.8538 46.5667 40.0371 46.24C39.2438 45.9133 38.3804 45.75 37.4471 45.75C36.5138 45.75 35.6388 45.9133 34.8221 46.24C34.0288 46.5667 33.3288 47.045 32.7221 47.675C32.1388 48.2817 31.6721 49.0167 31.3221 49.88C30.9954 50.72 30.8321 51.6767 30.8321 52.75C30.8321 53.8 30.9954 54.7567 31.3221 55.62C31.6721 56.4833 32.1388 57.23 32.7221 57.86C33.3288 58.4667 34.0288 58.9333 34.8221 59.26C35.6388 59.5867 36.5138 59.75 37.4471 59.75ZM70.9322 65L62.9872 40.5H70.1272L76.8122 61.71H73.2072L80.2422 40.5H86.6122L93.2622 61.71H89.7972L96.6922 40.5H103.307L95.3622 65H87.9422L82.2722 46.975H84.2672L78.3522 65H70.9322ZM117.838 65.49C115.878 65.49 114.069 65.175 112.413 64.545C110.756 63.915 109.309 63.0283 108.073 61.885C106.859 60.7183 105.914 59.365 105.238 57.825C104.561 56.285 104.223 54.5933 104.223 52.75C104.223 50.9067 104.561 49.215 105.238 47.675C105.914 46.135 106.859 44.7933 108.073 43.65C109.309 42.4833 110.756 41.585 112.413 40.955C114.069 40.325 115.878 40.01 117.838 40.01C119.821 40.01 121.629 40.325 123.263 40.955C124.919 41.585 126.354 42.4833 127.568 43.65C128.781 44.7933 129.726 46.135 130.403 47.675C131.103 49.215 131.453 50.9067 131.453 52.75C131.453 54.5933 131.103 56.2967 130.403 57.86C129.726 59.4 128.781 60.7417 127.568 61.885C126.354 63.0283 124.919 63.915 123.263 64.545C121.629 65.175 119.821 65.49 117.838 65.49ZM117.838 59.75C118.771 59.75 119.634 59.5867 120.428 59.26C121.244 58.9333 121.944 58.4667 122.528 57.86C123.134 57.23 123.601 56.4833 123.928 55.62C124.278 54.7567 124.453 53.8 124.453 52.75C124.453 51.6767 124.278 50.72 123.928 49.88C123.601 49.0167 123.134 48.2817 122.528 47.675C121.944 47.045 121.244 46.5667 120.428 46.24C119.634 45.9133 118.771 45.75 117.838 45.75C116.904 45.75 116.029 45.9133 115.213 46.24C114.419 46.5667 113.719 47.045 113.113 47.675C112.529 48.2817 112.063 49.0167 111.713 49.88C111.386 50.72 111.223 51.6767 111.223 52.75C111.223 53.8 111.386 54.7567 111.713 55.62C112.063 56.4833 112.529 57.23 113.113 57.86C113.719 58.4667 114.419 58.9333 115.213 59.26C116.029 59.5867 116.904 59.75 117.838 59.75ZM135.082 65V40.5H146.282C148.522 40.5 150.447 40.8617 152.057 41.585C153.691 42.3083 154.951 43.3583 155.837 44.735C156.724 46.0883 157.167 47.6983 157.167 49.565C157.167 51.4083 156.724 53.0067 155.837 54.36C154.951 55.69 153.691 56.7167 152.057 57.44C150.447 58.14 148.522 58.49 146.282 58.49H138.932L142.012 55.585V65H135.082ZM150.237 65L144.147 56.075H151.532L157.657 65H150.237ZM142.012 56.32L138.932 53.135H145.862C147.309 53.135 148.382 52.82 149.082 52.19C149.806 51.56 150.167 50.685 150.167 49.565C150.167 48.4217 149.806 47.535 149.082 46.905C148.382 46.275 147.309 45.96 145.862 45.96H138.932L142.012 42.775V56.32ZM167.186 59.575L166.801 51.805L177.336 40.5H184.966L174.466 51.875L170.616 55.9L167.186 59.575ZM160.991 65V40.5H167.851V65H160.991ZM177.441 65L169.461 54.885L173.976 50.055L185.491 65H177.441ZM203.549 65L195.604 40.5H202.744L209.429 61.71H205.824L212.859 40.5H219.229L225.879 61.71H222.414L229.309 40.5H235.924L227.979 65H220.559L214.889 46.975H216.884L210.969 65H203.549ZM238.408 65V40.5H245.338V65H238.408ZM255.483 65V45.995H247.958V40.5H269.903V45.995H262.413V65H255.483ZM288.865 40.5H295.795V65H288.865V40.5ZM279.415 65H272.485V40.5H279.415V65ZM289.355 55.445H278.925V49.705H289.355V55.445Z" fill="#F5F5F5"/>
<defs>
<linearGradient id="paint0_linear_2_1535" x1="-14" y1="-3.47618" x2="94.2864" y2="11.3042" gradientUnits="userSpaceOnUse">
<stop stop-color="#9747FF"/>
<stop offset="1" stop-color="#96B3FD"/>
</linearGradient>
</defs>
</svg>
