<svg width="48" height="48" viewBox="0 0 48 48" fill="none" xmlns="http://www.w3.org/2000/svg">
<rect x="1" y="1" width="46" height="46" rx="23" stroke="#F5F5F5" stroke-width="2"/>
<path d="M20.1927 31.2C19.086 31.2 18.086 30.92 17.1927 30.36C16.3127 29.8 15.6193 28.9867 15.1127 27.92C14.606 26.84 14.3527 25.5333 14.3527 24C14.3527 22.4667 14.606 21.1667 15.1127 20.1C15.6193 19.02 16.3127 18.2 17.1927 17.64C18.086 17.08 19.086 16.8 20.1927 16.8C21.3127 16.8 22.3127 17.08 23.1927 17.64C24.0727 18.2 24.766 19.02 25.2727 20.1C25.7927 21.1667 26.0527 22.4667 26.0527 24C26.0527 25.5333 25.7927 26.84 25.2727 27.92C24.766 28.9867 24.0727 29.8 23.1927 30.36C22.3127 30.92 21.3127 31.2 20.1927 31.2ZM20.1927 28.94C20.846 28.94 21.4127 28.7667 21.8927 28.42C22.3727 28.06 22.746 27.5133 23.0127 26.78C23.2927 26.0467 23.4327 25.12 23.4327 24C23.4327 22.8667 23.2927 21.94 23.0127 21.22C22.746 20.4867 22.3727 19.9467 21.8927 19.6C21.4127 19.24 20.846 19.06 20.1927 19.06C19.566 19.06 19.006 19.24 18.5127 19.6C18.0327 19.9467 17.6527 20.4867 17.3727 21.22C17.106 21.94 16.9727 22.8667 16.9727 24C16.9727 25.12 17.106 26.0467 17.3727 26.78C17.6527 27.5133 18.0327 28.06 18.5127 28.42C19.006 28.7667 19.566 28.94 20.1927 28.94ZM30.0302 31V18L31.1702 19.18H27.0702V17H32.6302V31H30.0302Z" fill="#F5F5F5"/>
</svg>
