<svg width="48" height="49" viewBox="0 0 48 49" fill="none" xmlns="http://www.w3.org/2000/svg">
<rect x="1" y="1.5" width="46" height="46" rx="23" stroke="#F5F5F5" stroke-width="2"/>
<path d="M18.1809 31.7C17.0743 31.7 16.0743 31.42 15.1809 30.86C14.3009 30.3 13.6076 29.4867 13.1009 28.42C12.5943 27.34 12.3409 26.0333 12.3409 24.5C12.3409 22.9667 12.5943 21.6667 13.1009 20.6C13.6076 19.52 14.3009 18.7 15.1809 18.14C16.0743 17.58 17.0743 17.3 18.1809 17.3C19.3009 17.3 20.3009 17.58 21.1809 18.14C22.0609 18.7 22.7543 19.52 23.2609 20.6C23.7809 21.6667 24.0409 22.9667 24.0409 24.5C24.0409 26.0333 23.7809 27.34 23.2609 28.42C22.7543 29.4867 22.0609 30.3 21.1809 30.86C20.3009 31.42 19.3009 31.7 18.1809 31.7ZM18.1809 29.44C18.8343 29.44 19.4009 29.2667 19.8809 28.92C20.3609 28.56 20.7343 28.0133 21.0009 27.28C21.2809 26.5467 21.4209 25.62 21.4209 24.5C21.4209 23.3667 21.2809 22.44 21.0009 21.72C20.7343 20.9867 20.3609 20.4467 19.8809 20.1C19.4009 19.74 18.8343 19.56 18.1809 19.56C17.5543 19.56 16.9943 19.74 16.5009 20.1C16.0209 20.4467 15.6409 20.9867 15.3609 21.72C15.0943 22.44 14.9609 23.3667 14.9609 24.5C14.9609 25.62 15.0943 26.5467 15.3609 27.28C15.6409 28.0133 16.0209 28.56 16.5009 28.92C16.9943 29.2667 17.5543 29.44 18.1809 29.44ZM25.5984 31.5V29.76L31.1584 24.48C31.6251 24.04 31.9718 23.6533 32.1984 23.32C32.4251 22.9867 32.5718 22.68 32.6384 22.4C32.7184 22.1067 32.7584 21.8333 32.7584 21.58C32.7584 20.94 32.5384 20.4467 32.0984 20.1C31.6584 19.74 31.0118 19.56 30.1584 19.56C29.4784 19.56 28.8584 19.68 28.2984 19.92C27.7518 20.16 27.2784 20.5267 26.8784 21.02L25.0584 19.62C25.6051 18.8867 26.3384 18.32 27.2584 17.92C28.1918 17.5067 29.2318 17.3 30.3784 17.3C31.3918 17.3 32.2718 17.4667 33.0184 17.8C33.7784 18.12 34.3584 18.58 34.7584 19.18C35.1718 19.78 35.3784 20.4933 35.3784 21.32C35.3784 21.7733 35.3184 22.2267 35.1984 22.68C35.0784 23.12 34.8518 23.5867 34.5184 24.08C34.1851 24.5733 33.6984 25.1267 33.0584 25.74L28.2784 30.28L27.7384 29.3H35.9184V31.5H25.5984Z" fill="#F5F5F5"/>
</svg>
