<svg width="48" height="49" viewBox="0 0 48 49" fill="none" xmlns="http://www.w3.org/2000/svg">
<rect x="1" y="1.5" width="46" height="46" rx="23" stroke="#F5F5F5" stroke-width="2"/>
<path d="M18.7688 31.7C17.6622 31.7 16.6622 31.42 15.7688 30.86C14.8888 30.3 14.1955 29.4867 13.6888 28.42C13.1822 27.34 12.9288 26.0333 12.9288 24.5C12.9288 22.9667 13.1822 21.6667 13.6888 20.6C14.1955 19.52 14.8888 18.7 15.7688 18.14C16.6622 17.58 17.6622 17.3 18.7688 17.3C19.8888 17.3 20.8888 17.58 21.7688 18.14C22.6488 18.7 23.3422 19.52 23.8488 20.6C24.3688 21.6667 24.6288 22.9667 24.6288 24.5C24.6288 26.0333 24.3688 27.34 23.8488 28.42C23.3422 29.4867 22.6488 30.3 21.7688 30.86C20.8888 31.42 19.8888 31.7 18.7688 31.7ZM18.7688 29.44C19.4222 29.44 19.9888 29.2667 20.4688 28.92C20.9488 28.56 21.3222 28.0133 21.5888 27.28C21.8688 26.5467 22.0088 25.62 22.0088 24.5C22.0088 23.3667 21.8688 22.44 21.5888 21.72C21.3222 20.9867 20.9488 20.4467 20.4688 20.1C19.9888 19.74 19.4222 19.56 18.7688 19.56C18.1422 19.56 17.5822 19.74 17.0888 20.1C16.6088 20.4467 16.2288 20.9867 15.9488 21.72C15.6822 22.44 15.5488 23.3667 15.5488 24.5C15.5488 25.62 15.6822 26.5467 15.9488 27.28C16.2288 28.0133 16.6088 28.56 17.0888 28.92C17.5822 29.2667 18.1422 29.44 18.7688 29.44ZM30.5905 31.7C29.6039 31.7 28.6372 31.56 27.6905 31.28C26.7572 30.9867 25.9705 30.5867 25.3305 30.08L26.4505 28.06C26.9572 28.4733 27.5705 28.8067 28.2905 29.06C29.0105 29.3133 29.7639 29.44 30.5505 29.44C31.4839 29.44 32.2105 29.2533 32.7305 28.88C33.2505 28.4933 33.5105 27.9733 33.5105 27.32C33.5105 26.68 33.2705 26.1733 32.7905 25.8C32.3105 25.4267 31.5372 25.24 30.4705 25.24H29.1905V23.46L33.1905 18.7L33.5305 19.68H26.0105V17.5H35.5505V19.24L31.5505 24L30.1905 23.2H30.9705C32.6905 23.2 33.9772 23.5867 34.8305 24.36C35.6972 25.12 36.1305 26.1 36.1305 27.3C36.1305 28.0867 35.9305 28.8133 35.5305 29.48C35.1305 30.1467 34.5172 30.6867 33.6905 31.1C32.8772 31.5 31.8439 31.7 30.5905 31.7Z" fill="#F5F5F5"/>
</svg>
