<svg width="48" height="48" viewBox="0 0 48 48" fill="none" xmlns="http://www.w3.org/2000/svg">
<rect x="1" y="1" width="46" height="46" rx="23" stroke="#F5F5F5" stroke-width="2"/>
<path d="M17.2044 31.2C16.0977 31.2 15.0977 30.92 14.2044 30.36C13.3244 29.8 12.631 28.9867 12.1244 27.92C11.6177 26.84 11.3644 25.5333 11.3644 24C11.3644 22.4667 11.6177 21.1667 12.1244 20.1C12.631 19.02 13.3244 18.2 14.2044 17.64C15.0977 17.08 16.0977 16.8 17.2044 16.8C18.3244 16.8 19.3244 17.08 20.2044 17.64C21.0844 18.2 21.7777 19.02 22.2844 20.1C22.8044 21.1667 23.0644 22.4667 23.0644 24C23.0644 25.5333 22.8044 26.84 22.2844 27.92C21.7777 28.9867 21.0844 29.8 20.2044 30.36C19.3244 30.92 18.3244 31.2 17.2044 31.2ZM17.2044 28.94C17.8577 28.94 18.4244 28.7667 18.9044 28.42C19.3844 28.06 19.7577 27.5133 20.0244 26.78C20.3044 26.0467 20.4444 25.12 20.4444 24C20.4444 22.8667 20.3044 21.94 20.0244 21.22C19.7577 20.4867 19.3844 19.9467 18.9044 19.6C18.4244 19.24 17.8577 19.06 17.2044 19.06C16.5777 19.06 16.0177 19.24 15.5244 19.6C15.0444 19.9467 14.6644 20.4867 14.3844 21.22C14.1177 21.94 13.9844 22.8667 13.9844 24C13.9844 25.12 14.1177 26.0467 14.3844 26.78C14.6644 27.5133 15.0444 28.06 15.5244 28.42C16.0177 28.7667 16.5777 28.94 17.2044 28.94ZM24.6214 27.82V26.02L31.5214 17H34.3014L27.5014 26.02L26.2014 25.62H37.3014V27.82H24.6214ZM32.3014 31V27.82L32.3814 25.62V22.8H34.8214V31H32.3014Z" fill="#F5F5F5"/>
</svg>
