<svg width="24" height="24" viewBox="0 0 24 24" fill="none" xmlns="http://www.w3.org/2000/svg">
<path d="M10.4688 4.65625C7.5625 5.25 5.21875 7.59375 4.625 10.5C3.78125 14.9062 6.78125 18.8438 10.8438 19.4062C11.4375 19.5 12 19.0312 12 18.4375V18.4062C12 17.9375 11.625 17.5 11.1562 17.4375C8.5 17.0312 6.5 14.75 6.5 12C6.5 8.78125 9.25 6.1875 12.5312 6.5C15.375 6.78125 17.5 9.375 17.5 12.25V12.75C17.5 13.4375 16.9375 14 16.25 14C15.5312 14 15 13.4375 15 12.75V9C15 8.71875 14.75 8.5 14.5 8.5H13.5C13.25 8.5 13.0625 8.65625 13 8.84375C12.25 8.46875 11.3125 8.34375 10.3125 8.6875C9.125 9.125 8.1875 10.2188 8.03125 11.5C7.71875 13.6562 9.375 15.5 11.5 15.5C12.3125 15.5 13.0625 15.1875 13.6562 14.7188C14.4062 15.6875 15.6875 16.25 17.0938 15.9062C18.5312 15.5625 19.5 14.1562 19.4688 12.6875V12.0312C19.4688 7.375 15.2812 3.71875 10.4688 4.65625ZM11.4688 13.5312C10.625 13.5312 9.96875 12.8438 9.96875 12.0312C9.96875 11.1875 10.625 10.5312 11.4688 10.5312C12.2812 10.5312 12.9688 11.1875 12.9688 12.0312C12.9688 12.8438 12.3125 13.5312 11.4688 13.5312Z" fill="#B4B4B4"/>
</svg>
