<svg width="32" height="32" viewBox="0 0 32 32" fill="none" xmlns="http://www.w3.org/2000/svg">
<path d="M16 12.0078C18.4609 12.0078 20.4922 14.0391 20.4922 16.5C20.4922 19 18.4609 20.9922 16 20.9922C13.5 20.9922 11.5078 19 11.5078 16.5C11.5078 14.0391 13.5 12.0078 16 12.0078ZM16 19.4297C17.6016 19.4297 18.8906 18.1406 18.8906 16.5C18.8906 14.8984 17.6016 13.6094 16 13.6094C14.3594 13.6094 13.0703 14.8984 13.0703 16.5C13.0703 18.1406 14.3984 19.4297 16 19.4297ZM21.7031 11.8516C21.7031 11.2656 21.2344 10.7969 20.6484 10.7969C20.0625 10.7969 19.5938 11.2656 19.5938 11.8516C19.5938 12.4375 20.0625 12.9062 20.6484 12.9062C21.2344 12.9062 21.7031 12.4375 21.7031 11.8516ZM24.6719 12.9062C24.75 14.3516 24.75 18.6875 24.6719 20.1328C24.5938 21.5391 24.2812 22.75 23.2656 23.8047C22.25 24.8203 21 25.1328 19.5938 25.2109C18.1484 25.2891 13.8125 25.2891 12.3672 25.2109C10.9609 25.1328 9.75 24.8203 8.69531 23.8047C7.67969 22.75 7.36719 21.5391 7.28906 20.1328C7.21094 18.6875 7.21094 14.3516 7.28906 12.9062C7.36719 11.5 7.67969 10.25 8.69531 9.23438C9.75 8.21875 10.9609 7.90625 12.3672 7.82812C13.8125 7.75 18.1484 7.75 19.5938 7.82812C21 7.90625 22.25 8.21875 23.2656 9.23438C24.2812 10.25 24.5938 11.5 24.6719 12.9062ZM22.7969 21.6562C23.2656 20.5234 23.1484 17.7891 23.1484 16.5C23.1484 15.25 23.2656 12.5156 22.7969 11.3438C22.4844 10.6016 21.8984 9.97656 21.1562 9.70312C19.9844 9.23438 17.25 9.35156 16 9.35156C14.7109 9.35156 11.9766 9.23438 10.8438 9.70312C10.0625 10.0156 9.47656 10.6016 9.16406 11.3438C8.69531 12.5156 8.8125 15.25 8.8125 16.5C8.8125 17.7891 8.69531 20.5234 9.16406 21.6562C9.47656 22.4375 10.0625 23.0234 10.8438 23.3359C11.9766 23.8047 14.7109 23.6875 16 23.6875C17.25 23.6875 19.9844 23.8047 21.1562 23.3359C21.8984 23.0234 22.5234 22.4375 22.7969 21.6562Z" fill="#F5F5F5"/>
</svg>
