<svg width="569" height="132" viewBox="0 0 569 132" fill="none" xmlns="http://www.w3.org/2000/svg">
<path d="M47.472 33L39.984 10.6H43.28L50.16 31.272H48.496L55.632 10.6H58.576L65.552 31.272H63.952L70.928 10.6H73.968L66.48 33H63.12L56.592 13.832H57.456L50.896 33H47.472ZM77.1145 33V16.04H80.1865V33H77.1145ZM78.6505 12.776C78.0532 12.776 77.5518 12.584 77.1465 12.2C76.7625 11.816 76.5705 11.3467 76.5705 10.792C76.5705 10.216 76.7625 9.736 77.1465 9.352C77.5518 8.968 78.0532 8.776 78.6505 8.776C79.2478 8.776 79.7385 8.968 80.1225 9.352C80.5278 9.71467 80.7305 10.1733 80.7305 10.728C80.7305 11.304 80.5385 11.7947 80.1545 12.2C79.7705 12.584 79.2692 12.776 78.6505 12.776ZM91.556 33.192C89.8493 33.192 88.5267 32.7333 87.588 31.816C86.6493 30.8987 86.18 29.5867 86.18 27.88V12.328H89.252V27.752C89.252 28.6693 89.476 29.3733 89.924 29.864C90.3933 30.3547 91.0547 30.6 91.908 30.6C92.868 30.6 93.668 30.3333 94.308 29.8L95.268 32.008C94.7987 32.4133 94.2333 32.712 93.572 32.904C92.932 33.096 92.26 33.192 91.556 33.192ZM83.3 18.568V16.04H94.116V18.568H83.3ZM107.718 15.88C109.105 15.88 110.321 16.1467 111.366 16.68C112.433 17.2133 113.265 18.024 113.862 19.112C114.459 20.2 114.758 21.576 114.758 23.24V33H111.686V23.592C111.686 21.9493 111.281 20.712 110.47 19.88C109.681 19.048 108.561 18.632 107.11 18.632C106.022 18.632 105.073 18.8453 104.262 19.272C103.451 19.6987 102.822 20.328 102.374 21.16C101.947 21.992 101.734 23.0267 101.734 24.264V33H98.662V9.256H101.734V20.616L101.126 19.4C101.681 18.2907 102.534 17.4267 103.686 16.808C104.838 16.1893 106.182 15.88 107.718 15.88ZM138.925 33V29.416L138.765 28.744V22.632C138.765 21.3307 138.381 20.328 137.613 19.624C136.866 18.8987 135.736 18.536 134.221 18.536C133.218 18.536 132.237 18.7067 131.277 19.048C130.317 19.368 129.506 19.8053 128.845 20.36L127.565 18.056C128.44 17.352 129.485 16.8187 130.701 16.456C131.938 16.072 133.229 15.88 134.573 15.88C136.898 15.88 138.69 16.4453 139.949 17.576C141.208 18.7067 141.837 20.4347 141.837 22.76V33H138.925ZM133.357 33.192C132.098 33.192 130.989 32.9787 130.029 32.552C129.09 32.1253 128.365 31.5387 127.853 30.792C127.341 30.024 127.085 29.16 127.085 28.2C127.085 27.2827 127.298 26.4507 127.725 25.704C128.173 24.9573 128.888 24.36 129.869 23.912C130.872 23.464 132.216 23.24 133.901 23.24H139.277V25.448H134.029C132.493 25.448 131.458 25.704 130.925 26.216C130.392 26.728 130.125 27.3467 130.125 28.072C130.125 28.904 130.456 29.576 131.117 30.088C131.778 30.5787 132.696 30.824 133.869 30.824C135.021 30.824 136.024 30.568 136.877 30.056C137.752 29.544 138.381 28.7973 138.765 27.816L139.373 29.928C138.968 30.9307 138.253 31.7307 137.229 32.328C136.205 32.904 134.914 33.192 133.357 33.192ZM155.924 33V14.536C155.924 12.872 156.404 11.5493 157.364 10.568C158.345 9.56533 159.732 9.064 161.524 9.064C162.185 9.064 162.814 9.14933 163.412 9.32C164.03 9.46933 164.553 9.71467 164.98 10.056L164.052 12.392C163.732 12.136 163.369 11.944 162.964 11.816C162.558 11.6667 162.132 11.592 161.684 11.592C160.788 11.592 160.105 11.848 159.636 12.36C159.166 12.8507 158.932 13.5867 158.932 14.568V16.84L158.996 18.248V33H155.924ZM153.044 18.568V16.04H163.86V18.568H153.044ZM173.451 33.192C171.744 33.192 170.23 32.8187 168.907 32.072C167.584 31.3253 166.539 30.3013 165.771 29C165.003 27.6773 164.619 26.184 164.619 24.52C164.619 22.8347 165.003 21.3413 165.771 20.04C166.539 18.7387 167.584 17.7253 168.907 17C170.23 16.2533 171.744 15.88 173.451 15.88C175.136 15.88 176.64 16.2533 177.963 17C179.307 17.7253 180.352 18.7387 181.099 20.04C181.867 21.32 182.251 22.8133 182.251 24.52C182.251 26.2053 181.867 27.6987 181.099 29C180.352 30.3013 179.307 31.3253 177.963 32.072C176.64 32.8187 175.136 33.192 173.451 33.192ZM173.451 30.504C174.539 30.504 175.51 30.2587 176.363 29.768C177.238 29.2773 177.92 28.584 178.411 27.688C178.902 26.7707 179.147 25.7147 179.147 24.52C179.147 23.304 178.902 22.2587 178.411 21.384C177.92 20.488 177.238 19.7947 176.363 19.304C175.51 18.8133 174.539 18.568 173.451 18.568C172.363 18.568 171.392 18.8133 170.539 19.304C169.686 19.7947 169.003 20.488 168.491 21.384C167.979 22.2587 167.723 23.304 167.723 24.52C167.723 25.7147 167.979 26.7707 168.491 27.688C169.003 28.584 169.686 29.2773 170.539 29.768C171.392 30.2587 172.363 30.504 173.451 30.504ZM193.572 33.192C191.844 33.192 190.297 32.8187 188.932 32.072C187.588 31.3253 186.532 30.3013 185.764 29C184.996 27.6987 184.612 26.2053 184.612 24.52C184.612 22.8347 184.996 21.3413 185.764 20.04C186.532 18.7387 187.588 17.7253 188.932 17C190.297 16.2533 191.844 15.88 193.572 15.88C195.108 15.88 196.473 16.1893 197.668 16.808C198.884 17.4053 199.822 18.3013 200.484 19.496L198.148 21C197.593 20.168 196.91 19.56 196.1 19.176C195.31 18.7707 194.457 18.568 193.54 18.568C192.43 18.568 191.438 18.8133 190.564 19.304C189.689 19.7947 188.996 20.488 188.484 21.384C187.972 22.2587 187.716 23.304 187.716 24.52C187.716 25.736 187.972 26.792 188.484 27.688C188.996 28.584 189.689 29.2773 190.564 29.768C191.438 30.2587 192.43 30.504 193.54 30.504C194.457 30.504 195.31 30.312 196.1 29.928C196.91 29.5227 197.593 28.904 198.148 28.072L200.484 29.544C199.822 30.7173 198.884 31.624 197.668 32.264C196.473 32.8827 195.108 33.192 193.572 33.192ZM211.277 33.192C209.826 33.192 208.546 32.9253 207.437 32.392C206.349 31.8587 205.495 31.048 204.877 29.96C204.279 28.8507 203.981 27.464 203.981 25.8V16.04H207.053V25.448C207.053 27.112 207.447 28.36 208.237 29.192C209.047 30.024 210.178 30.44 211.629 30.44C212.695 30.44 213.623 30.2267 214.413 29.8C215.202 29.352 215.81 28.712 216.237 27.88C216.663 27.0267 216.877 26.0027 216.877 24.808V16.04H219.949V33H217.037V28.424L217.517 29.64C216.962 30.7707 216.13 31.6453 215.021 32.264C213.911 32.8827 212.663 33.192 211.277 33.192ZM230.341 33.192C228.933 33.192 227.589 33 226.309 32.616C225.05 32.232 224.058 31.7627 223.333 31.208L224.613 28.776C225.338 29.2667 226.234 29.6827 227.301 30.024C228.368 30.3653 229.456 30.536 230.565 30.536C231.994 30.536 233.018 30.3333 233.637 29.928C234.277 29.5227 234.597 28.9573 234.597 28.232C234.597 27.6987 234.405 27.2827 234.021 26.984C233.637 26.6853 233.125 26.4613 232.485 26.312C231.866 26.1627 231.173 26.0347 230.405 25.928C229.637 25.8 228.869 25.6507 228.101 25.48C227.333 25.288 226.629 25.032 225.989 24.712C225.349 24.3707 224.837 23.912 224.453 23.336C224.069 22.7387 223.877 21.9493 223.877 20.968C223.877 19.944 224.165 19.048 224.741 18.28C225.317 17.512 226.128 16.9253 227.173 16.52C228.24 16.0933 229.498 15.88 230.949 15.88C232.058 15.88 233.178 16.0187 234.309 16.296C235.461 16.552 236.4 16.9253 237.125 17.416L235.813 19.848C235.045 19.336 234.245 18.984 233.413 18.792C232.581 18.6 231.749 18.504 230.917 18.504C229.573 18.504 228.57 18.728 227.909 19.176C227.248 19.6027 226.917 20.1573 226.917 20.84C226.917 21.416 227.109 21.864 227.493 22.184C227.898 22.4827 228.41 22.7173 229.029 22.888C229.669 23.0587 230.373 23.208 231.141 23.336C231.909 23.4427 232.677 23.592 233.445 23.784C234.213 23.9547 234.906 24.2 235.525 24.52C236.165 24.84 236.677 25.288 237.061 25.864C237.466 26.44 237.669 27.208 237.669 28.168C237.669 29.192 237.37 30.0773 236.773 30.824C236.176 31.5707 235.333 32.1573 234.245 32.584C233.157 32.9893 231.856 33.192 230.341 33.192ZM249.462 33V16.04H252.534V33H249.462ZM250.998 12.776C250.401 12.776 249.899 12.584 249.494 12.2C249.11 11.816 248.918 11.3467 248.918 10.792C248.918 10.216 249.11 9.736 249.494 9.352C249.899 8.968 250.401 8.776 250.998 8.776C251.595 8.776 252.086 8.968 252.47 9.352C252.875 9.71467 253.078 10.1733 253.078 10.728C253.078 11.304 252.886 11.7947 252.502 12.2C252.118 12.584 251.617 12.776 250.998 12.776ZM267.136 15.88C268.522 15.88 269.738 16.1467 270.784 16.68C271.85 17.2133 272.682 18.024 273.28 19.112C273.877 20.2 274.176 21.576 274.176 23.24V33H271.104V23.592C271.104 21.9493 270.698 20.712 269.888 19.88C269.098 19.048 267.978 18.632 266.528 18.632C265.44 18.632 264.49 18.8453 263.68 19.272C262.869 19.6987 262.24 20.328 261.792 21.16C261.365 21.992 261.152 23.0267 261.152 24.264V33H258.08V16.04H261.024V20.616L260.544 19.4C261.098 18.2907 261.952 17.4267 263.104 16.808C264.256 16.1893 265.6 15.88 267.136 15.88ZM288.263 33V14.536C288.263 12.872 288.743 11.5493 289.703 10.568C290.684 9.56533 292.071 9.064 293.863 9.064C294.524 9.064 295.153 9.14933 295.751 9.32C296.369 9.46933 296.892 9.71467 297.319 10.056L296.391 12.392C296.071 12.136 295.708 11.944 295.303 11.816C294.897 11.6667 294.471 11.592 294.023 11.592C293.127 11.592 292.444 11.848 291.975 12.36C291.505 12.8507 291.271 13.5867 291.271 14.568V16.84L291.335 18.248V33H288.263ZM285.383 18.568V16.04H296.199V18.568H285.383ZM305.912 33.192C304.461 33.192 303.181 32.9253 302.072 32.392C300.984 31.8587 300.13 31.048 299.512 29.96C298.914 28.8507 298.616 27.464 298.616 25.8V16.04H301.688V25.448C301.688 27.112 302.082 28.36 302.872 29.192C303.682 30.024 304.813 30.44 306.264 30.44C307.33 30.44 308.258 30.2267 309.048 29.8C309.837 29.352 310.445 28.712 310.872 27.88C311.298 27.0267 311.512 26.0027 311.512 24.808V16.04H314.584V33H311.672V28.424L312.152 29.64C311.597 30.7707 310.765 31.6453 309.656 32.264C308.546 32.8827 307.298 33.192 305.912 33.192ZM324.976 33.192C323.568 33.192 322.224 33 320.944 32.616C319.685 32.232 318.693 31.7627 317.968 31.208L319.248 28.776C319.973 29.2667 320.869 29.6827 321.936 30.024C323.003 30.3653 324.091 30.536 325.2 30.536C326.629 30.536 327.653 30.3333 328.272 29.928C328.912 29.5227 329.232 28.9573 329.232 28.232C329.232 27.6987 329.04 27.2827 328.656 26.984C328.272 26.6853 327.76 26.4613 327.12 26.312C326.501 26.1627 325.808 26.0347 325.04 25.928C324.272 25.8 323.504 25.6507 322.736 25.48C321.968 25.288 321.264 25.032 320.624 24.712C319.984 24.3707 319.472 23.912 319.088 23.336C318.704 22.7387 318.512 21.9493 318.512 20.968C318.512 19.944 318.8 19.048 319.376 18.28C319.952 17.512 320.763 16.9253 321.808 16.52C322.875 16.0933 324.133 15.88 325.584 15.88C326.693 15.88 327.813 16.0187 328.944 16.296C330.096 16.552 331.035 16.9253 331.76 17.416L330.448 19.848C329.68 19.336 328.88 18.984 328.048 18.792C327.216 18.6 326.384 18.504 325.552 18.504C324.208 18.504 323.205 18.728 322.544 19.176C321.883 19.6027 321.552 20.1573 321.552 20.84C321.552 21.416 321.744 21.864 322.128 22.184C322.533 22.4827 323.045 22.7173 323.664 22.888C324.304 23.0587 325.008 23.208 325.776 23.336C326.544 23.4427 327.312 23.592 328.08 23.784C328.848 23.9547 329.541 24.2 330.16 24.52C330.8 24.84 331.312 25.288 331.696 25.864C332.101 26.44 332.304 27.208 332.304 28.168C332.304 29.192 332.005 30.0773 331.408 30.824C330.811 31.5707 329.968 32.1573 328.88 32.584C327.792 32.9893 326.491 33.192 324.976 33.192ZM335.823 33V16.04H338.895V33H335.823ZM337.359 12.776C336.762 12.776 336.261 12.584 335.855 12.2C335.471 11.816 335.279 11.3467 335.279 10.792C335.279 10.216 335.471 9.736 335.855 9.352C336.261 8.968 336.762 8.776 337.359 8.776C337.957 8.776 338.447 8.968 338.831 9.352C339.237 9.71467 339.439 10.1733 339.439 10.728C339.439 11.304 339.247 11.7947 338.863 12.2C338.479 12.584 337.978 12.776 337.359 12.776ZM353.497 15.88C354.883 15.88 356.099 16.1467 357.145 16.68C358.211 17.2133 359.043 18.024 359.641 19.112C360.238 20.2 360.537 21.576 360.537 23.24V33H357.465V23.592C357.465 21.9493 357.059 20.712 356.249 19.88C355.459 19.048 354.339 18.632 352.889 18.632C351.801 18.632 350.851 18.8453 350.041 19.272C349.23 19.6987 348.601 20.328 348.153 21.16C347.726 21.992 347.513 23.0267 347.513 24.264V33H344.441V16.04H347.385V20.616L346.905 19.4C347.459 18.2907 348.313 17.4267 349.465 16.808C350.617 16.1893 351.961 15.88 353.497 15.88ZM373.326 39.4C371.769 39.4 370.254 39.176 368.782 38.728C367.331 38.3013 366.147 37.6827 365.23 36.872L366.702 34.504C367.491 35.1867 368.462 35.72 369.614 36.104C370.766 36.5093 371.971 36.712 373.23 36.712C375.235 36.712 376.707 36.2427 377.646 35.304C378.585 34.3653 379.054 32.936 379.054 31.016V27.432L379.374 24.072L379.214 20.68V16.04H382.126V30.696C382.126 33.6827 381.379 35.88 379.886 37.288C378.393 38.696 376.206 39.4 373.326 39.4ZM372.942 32.296C371.299 32.296 369.827 31.9547 368.526 31.272C367.246 30.568 366.222 29.5973 365.454 28.36C364.707 27.1227 364.334 25.6933 364.334 24.072C364.334 22.4293 364.707 21 365.454 19.784C366.222 18.5467 367.246 17.5867 368.526 16.904C369.827 16.2213 371.299 15.88 372.942 15.88C374.393 15.88 375.715 16.1787 376.91 16.776C378.105 17.352 379.054 18.248 379.758 19.464C380.483 20.68 380.846 22.216 380.846 24.072C380.846 25.9067 380.483 27.432 379.758 28.648C379.054 29.864 378.105 30.7813 376.91 31.4C375.715 31.9973 374.393 32.296 372.942 32.296ZM373.294 29.608C374.425 29.608 375.427 29.3733 376.302 28.904C377.177 28.4347 377.859 27.784 378.35 26.952C378.862 26.12 379.118 25.16 379.118 24.072C379.118 22.984 378.862 22.024 378.35 21.192C377.859 20.36 377.177 19.72 376.302 19.272C375.427 18.8027 374.425 18.568 373.294 18.568C372.163 18.568 371.15 18.8027 370.254 19.272C369.379 19.72 368.686 20.36 368.174 21.192C367.683 22.024 367.438 22.984 367.438 24.072C367.438 25.16 367.683 26.12 368.174 26.952C368.686 27.784 369.379 28.4347 370.254 28.904C371.15 29.3733 372.163 29.608 373.294 29.608ZM524.486 37.736L526.086 31.272L526.502 33.128C525.883 33.128 525.361 32.936 524.934 32.552C524.529 32.168 524.326 31.6453 524.326 30.984C524.326 30.344 524.529 29.8213 524.934 29.416C525.361 29.0107 525.873 28.808 526.47 28.808C527.089 28.808 527.59 29.0213 527.974 29.448C528.358 29.8533 528.55 30.3653 528.55 30.984C528.55 31.1973 528.529 31.4107 528.486 31.624C528.465 31.816 528.411 32.0507 528.326 32.328C528.262 32.584 528.155 32.904 528.006 33.288L526.502 37.736H524.486ZM184.691 77V73.416L184.531 72.744V66.632C184.531 65.3307 184.147 64.328 183.379 63.624C182.632 62.8987 181.501 62.536 179.987 62.536C178.984 62.536 178.003 62.7067 177.043 63.048C176.083 63.368 175.272 63.8053 174.611 64.36L173.331 62.056C174.205 61.352 175.251 60.8187 176.467 60.456C177.704 60.072 178.995 59.88 180.339 59.88C182.664 59.88 184.456 60.4453 185.715 61.576C186.973 62.7067 187.603 64.4347 187.603 66.76V77H184.691ZM179.123 77.192C177.864 77.192 176.755 76.9787 175.795 76.552C174.856 76.1253 174.131 75.5387 173.619 74.792C173.107 74.024 172.851 73.16 172.851 72.2C172.851 71.2827 173.064 70.4507 173.491 69.704C173.939 68.9573 174.653 68.36 175.635 67.912C176.637 67.464 177.981 67.24 179.667 67.24H185.043V69.448H179.795C178.259 69.448 177.224 69.704 176.691 70.216C176.157 70.728 175.891 71.3467 175.891 72.072C175.891 72.904 176.221 73.576 176.883 74.088C177.544 74.5787 178.461 74.824 179.635 74.824C180.787 74.824 181.789 74.568 182.643 74.056C183.517 73.544 184.147 72.7973 184.531 71.816L185.139 73.928C184.733 74.9307 184.019 75.7307 182.995 76.328C181.971 76.904 180.68 77.192 179.123 77.192ZM202.024 59.88C203.41 59.88 204.626 60.1467 205.672 60.68C206.738 61.2133 207.57 62.024 208.168 63.112C208.765 64.2 209.064 65.576 209.064 67.24V77H205.992V67.592C205.992 65.9493 205.586 64.712 204.776 63.88C203.986 63.048 202.866 62.632 201.416 62.632C200.328 62.632 199.378 62.8453 198.568 63.272C197.757 63.6987 197.128 64.328 196.68 65.16C196.253 65.992 196.04 67.0267 196.04 68.264V77H192.968V60.04H195.912V64.616L195.432 63.4C195.986 62.2907 196.84 61.4267 197.992 60.808C199.144 60.1893 200.488 59.88 202.024 59.88ZM221.437 77.192C219.794 77.192 218.322 76.8293 217.021 76.104C215.741 75.3787 214.728 74.3653 213.981 73.064C213.234 71.7627 212.861 70.248 212.861 68.52C212.861 66.792 213.234 65.288 213.981 64.008C214.728 62.7067 215.741 61.6933 217.021 60.968C218.322 60.2427 219.794 59.88 221.437 59.88C222.866 59.88 224.157 60.2 225.309 60.84C226.461 61.48 227.378 62.44 228.061 63.72C228.765 65 229.117 66.6 229.117 68.52C229.117 70.44 228.776 72.04 228.093 73.32C227.432 74.6 226.525 75.5707 225.373 76.232C224.221 76.872 222.909 77.192 221.437 77.192ZM221.693 74.504C222.76 74.504 223.72 74.2587 224.573 73.768C225.448 73.2773 226.13 72.584 226.621 71.688C227.133 70.7707 227.389 69.7147 227.389 68.52C227.389 67.304 227.133 66.2587 226.621 65.384C226.13 64.488 225.448 63.7947 224.573 63.304C223.72 62.8133 222.76 62.568 221.693 62.568C220.605 62.568 219.634 62.8133 218.781 63.304C217.928 63.7947 217.245 64.488 216.733 65.384C216.221 66.2587 215.965 67.304 215.965 68.52C215.965 69.7147 216.221 70.7707 216.733 71.688C217.245 72.584 217.928 73.2773 218.781 73.768C219.634 74.2587 220.605 74.504 221.693 74.504ZM227.485 77V72.424L227.677 68.488L227.357 64.552V53.256H230.429V77H227.485ZM514.779 77.192C513.072 77.192 511.75 76.7333 510.811 75.816C509.872 74.8987 509.403 73.5867 509.403 71.88V56.328H512.475V71.752C512.475 72.6693 512.699 73.3733 513.147 73.864C513.616 74.3547 514.278 74.6 515.131 74.6C516.091 74.6 516.891 74.3333 517.531 73.8L518.491 76.008C518.022 76.4133 517.456 76.712 516.795 76.904C516.155 77.096 515.483 77.192 514.779 77.192ZM506.523 62.568V60.04H517.339V62.568H506.523ZM528.587 77.192C526.88 77.192 525.365 76.8187 524.043 76.072C522.72 75.3253 521.675 74.3013 520.907 73C520.139 71.6773 519.755 70.184 519.755 68.52C519.755 66.8347 520.139 65.3413 520.907 64.04C521.675 62.7387 522.72 61.7253 524.043 61C525.365 60.2533 526.88 59.88 528.587 59.88C530.272 59.88 531.776 60.2533 533.099 61C534.443 61.7253 535.488 62.7387 536.235 64.04C537.003 65.32 537.387 66.8133 537.387 68.52C537.387 70.2053 537.003 71.6987 536.235 73C535.488 74.3013 534.443 75.3253 533.099 76.072C531.776 76.8187 530.272 77.192 528.587 77.192ZM528.587 74.504C529.675 74.504 530.645 74.2587 531.499 73.768C532.373 73.2773 533.056 72.584 533.547 71.688C534.037 70.7707 534.283 69.7147 534.283 68.52C534.283 67.304 534.037 66.2587 533.547 65.384C533.056 64.488 532.373 63.7947 531.499 63.304C530.645 62.8133 529.675 62.568 528.587 62.568C527.499 62.568 526.528 62.8133 525.675 63.304C524.821 63.7947 524.139 64.488 523.627 65.384C523.115 66.2587 522.859 67.304 522.859 68.52C522.859 69.7147 523.115 70.7707 523.627 71.688C524.139 72.584 524.821 73.2773 525.675 73.768C526.528 74.2587 527.499 74.504 528.587 74.504ZM35.114 121.192C33.6633 121.192 32.3513 120.872 31.178 120.232C30.026 119.571 29.1087 118.6 28.426 117.32C27.7647 116.04 27.434 114.44 27.434 112.52C27.434 110.6 27.7753 109 28.458 107.72C29.162 106.44 30.09 105.48 31.242 104.84C32.4153 104.2 33.706 103.88 35.114 103.88C36.778 103.88 38.25 104.243 39.53 104.968C40.81 105.693 41.8233 106.707 42.57 108.008C43.3167 109.288 43.69 110.792 43.69 112.52C43.69 114.248 43.3167 115.763 42.57 117.064C41.8233 118.365 40.81 119.379 39.53 120.104C38.25 120.829 36.778 121.192 35.114 121.192ZM26.122 121V97.256H29.194V108.552L28.874 112.488L29.066 116.424V121H26.122ZM34.858 118.504C35.946 118.504 36.9167 118.259 37.77 117.768C38.6447 117.277 39.3273 116.584 39.818 115.688C40.33 114.771 40.586 113.715 40.586 112.52C40.586 111.304 40.33 110.259 39.818 109.384C39.3273 108.488 38.6447 107.795 37.77 107.304C36.9167 106.813 35.946 106.568 34.858 106.568C33.7913 106.568 32.8207 106.813 31.946 107.304C31.0927 107.795 30.41 108.488 29.898 109.384C29.4073 110.259 29.162 111.304 29.162 112.52C29.162 113.715 29.4073 114.771 29.898 115.688C30.41 116.584 31.0927 117.277 31.946 117.768C32.8207 118.259 33.7913 118.504 34.858 118.504ZM54.7505 121.192C53.2998 121.192 52.0198 120.925 50.9105 120.392C49.8225 119.859 48.9692 119.048 48.3505 117.96C47.7532 116.851 47.4545 115.464 47.4545 113.8V104.04H50.5265V113.448C50.5265 115.112 50.9212 116.36 51.7105 117.192C52.5212 118.024 53.6518 118.44 55.1025 118.44C56.1692 118.44 57.0972 118.227 57.8865 117.8C58.6758 117.352 59.2838 116.712 59.7105 115.88C60.1372 115.027 60.3505 114.003 60.3505 112.808V104.04H63.4225V121H60.5105V116.424L60.9905 117.64C60.4358 118.771 59.6038 119.645 58.4945 120.264C57.3852 120.883 56.1372 121.192 54.7505 121.192ZM68.9507 121V104.04H72.0227V121H68.9507ZM70.4867 100.776C69.8894 100.776 69.3881 100.584 68.9827 100.2C68.5987 99.816 68.4067 99.3467 68.4067 98.792C68.4067 98.216 68.5987 97.736 68.9827 97.352C69.3881 96.968 69.8894 96.776 70.4867 96.776C71.0841 96.776 71.5747 96.968 71.9587 97.352C72.3641 97.7147 72.5667 98.1733 72.5667 98.728C72.5667 99.304 72.3747 99.7947 71.9907 100.2C71.6067 100.584 71.1054 100.776 70.4867 100.776ZM77.5682 121V97.256H80.6402V121H77.5682ZM93.1937 121.192C91.5511 121.192 90.0791 120.829 88.7777 120.104C87.4977 119.379 86.4844 118.365 85.7377 117.064C84.9911 115.763 84.6177 114.248 84.6177 112.52C84.6177 110.792 84.9911 109.288 85.7377 108.008C86.4844 106.707 87.4977 105.693 88.7777 104.968C90.0791 104.243 91.5511 103.88 93.1937 103.88C94.6231 103.88 95.9137 104.2 97.0657 104.84C98.2177 105.48 99.1351 106.44 99.8177 107.72C100.522 109 100.874 110.6 100.874 112.52C100.874 114.44 100.532 116.04 99.8497 117.32C99.1884 118.6 98.2817 119.571 97.1297 120.232C95.9777 120.872 94.6657 121.192 93.1937 121.192ZM93.4497 118.504C94.5164 118.504 95.4764 118.259 96.3297 117.768C97.2044 117.277 97.8871 116.584 98.3777 115.688C98.8897 114.771 99.1457 113.715 99.1457 112.52C99.1457 111.304 98.8897 110.259 98.3777 109.384C97.8871 108.488 97.2044 107.795 96.3297 107.304C95.4764 106.813 94.5164 106.568 93.4497 106.568C92.3617 106.568 91.3911 106.813 90.5377 107.304C89.6844 107.795 89.0017 108.488 88.4897 109.384C87.9777 110.259 87.7217 111.304 87.7217 112.52C87.7217 113.715 87.9777 114.771 88.4897 115.688C89.0017 116.584 89.6844 117.277 90.5377 117.768C91.3911 118.259 92.3617 118.504 93.4497 118.504ZM99.2417 121V116.424L99.4337 112.488L99.1137 108.552V97.256H102.186V121H99.2417ZM126.48 121V117.416L126.32 116.744V110.632C126.32 109.331 125.936 108.328 125.168 107.624C124.421 106.899 123.291 106.536 121.776 106.536C120.773 106.536 119.792 106.707 118.832 107.048C117.872 107.368 117.061 107.805 116.4 108.36L115.12 106.056C115.995 105.352 117.04 104.819 118.256 104.456C119.493 104.072 120.784 103.88 122.128 103.88C124.453 103.88 126.245 104.445 127.504 105.576C128.763 106.707 129.392 108.435 129.392 110.76V121H126.48ZM120.912 121.192C119.653 121.192 118.544 120.979 117.584 120.552C116.645 120.125 115.92 119.539 115.408 118.792C114.896 118.024 114.64 117.16 114.64 116.2C114.64 115.283 114.853 114.451 115.28 113.704C115.728 112.957 116.443 112.36 117.424 111.912C118.427 111.464 119.771 111.24 121.456 111.24H126.832V113.448H121.584C120.048 113.448 119.013 113.704 118.48 114.216C117.947 114.728 117.68 115.347 117.68 116.072C117.68 116.904 118.011 117.576 118.672 118.088C119.333 118.579 120.251 118.824 121.424 118.824C122.576 118.824 123.579 118.568 124.432 118.056C125.307 117.544 125.936 116.797 126.32 115.816L126.928 117.928C126.523 118.931 125.808 119.731 124.784 120.328C123.76 120.904 122.469 121.192 120.912 121.192ZM143.813 103.88C145.2 103.88 146.416 104.147 147.461 104.68C148.528 105.213 149.36 106.024 149.957 107.112C150.554 108.2 150.853 109.576 150.853 111.24V121H147.781V111.592C147.781 109.949 147.376 108.712 146.565 107.88C145.776 107.048 144.656 106.632 143.205 106.632C142.117 106.632 141.168 106.845 140.357 107.272C139.546 107.699 138.917 108.328 138.469 109.16C138.042 109.992 137.829 111.027 137.829 112.264V121H134.757V104.04H137.701V108.616L137.221 107.4C137.776 106.291 138.629 105.427 139.781 104.808C140.933 104.189 142.277 103.88 143.813 103.88ZM163.226 121.192C161.584 121.192 160.112 120.829 158.81 120.104C157.53 119.379 156.517 118.365 155.77 117.064C155.024 115.763 154.65 114.248 154.65 112.52C154.65 110.792 155.024 109.288 155.77 108.008C156.517 106.707 157.53 105.693 158.81 104.968C160.112 104.243 161.584 103.88 163.226 103.88C164.656 103.88 165.946 104.2 167.098 104.84C168.25 105.48 169.168 106.44 169.85 107.72C170.554 109 170.906 110.6 170.906 112.52C170.906 114.44 170.565 116.04 169.882 117.32C169.221 118.6 168.314 119.571 167.162 120.232C166.01 120.872 164.698 121.192 163.226 121.192ZM163.482 118.504C164.549 118.504 165.509 118.259 166.362 117.768C167.237 117.277 167.92 116.584 168.41 115.688C168.922 114.771 169.178 113.715 169.178 112.52C169.178 111.304 168.922 110.259 168.41 109.384C167.92 108.488 167.237 107.795 166.362 107.304C165.509 106.813 164.549 106.568 163.482 106.568C162.394 106.568 161.424 106.813 160.57 107.304C159.717 107.795 159.034 108.488 158.522 109.384C158.01 110.259 157.754 111.304 157.754 112.52C157.754 113.715 158.01 114.771 158.522 115.688C159.034 116.584 159.717 117.277 160.57 117.768C161.424 118.259 162.394 118.504 163.482 118.504ZM169.274 121V116.424L169.466 112.488L169.146 108.552V97.256H172.218V121H169.274ZM190.848 121.192C189.44 121.192 188.096 121 186.816 120.616C185.558 120.232 184.566 119.763 183.84 119.208L185.12 116.776C185.846 117.267 186.742 117.683 187.808 118.024C188.875 118.365 189.963 118.536 191.072 118.536C192.502 118.536 193.526 118.333 194.144 117.928C194.784 117.523 195.104 116.957 195.104 116.232C195.104 115.699 194.912 115.283 194.528 114.984C194.144 114.685 193.632 114.461 192.992 114.312C192.374 114.163 191.68 114.035 190.912 113.928C190.144 113.8 189.376 113.651 188.608 113.48C187.84 113.288 187.136 113.032 186.496 112.712C185.856 112.371 185.344 111.912 184.96 111.336C184.576 110.739 184.384 109.949 184.384 108.968C184.384 107.944 184.672 107.048 185.248 106.28C185.824 105.512 186.635 104.925 187.68 104.52C188.747 104.093 190.006 103.88 191.456 103.88C192.566 103.88 193.686 104.019 194.816 104.296C195.968 104.552 196.907 104.925 197.632 105.416L196.32 107.848C195.552 107.336 194.752 106.984 193.92 106.792C193.088 106.6 192.256 106.504 191.424 106.504C190.08 106.504 189.078 106.728 188.416 107.176C187.755 107.603 187.424 108.157 187.424 108.84C187.424 109.416 187.616 109.864 188 110.184C188.406 110.483 188.918 110.717 189.536 110.888C190.176 111.059 190.88 111.208 191.648 111.336C192.416 111.443 193.184 111.592 193.952 111.784C194.72 111.955 195.414 112.2 196.032 112.52C196.672 112.84 197.184 113.288 197.568 113.864C197.974 114.44 198.176 115.208 198.176 116.168C198.176 117.192 197.878 118.077 197.28 118.824C196.683 119.571 195.84 120.157 194.752 120.584C193.664 120.989 192.363 121.192 190.848 121.192ZM208.832 121.192C207.381 121.192 206.101 120.925 204.992 120.392C203.904 119.859 203.05 119.048 202.432 117.96C201.834 116.851 201.536 115.464 201.536 113.8V104.04H204.608V113.448C204.608 115.112 205.002 116.36 205.792 117.192C206.602 118.024 207.733 118.44 209.184 118.44C210.25 118.44 211.178 118.227 211.968 117.8C212.757 117.352 213.365 116.712 213.792 115.88C214.218 115.027 214.432 114.003 214.432 112.808V104.04H217.504V121H214.592V116.424L215.072 117.64C214.517 118.771 213.685 119.645 212.576 120.264C211.466 120.883 210.218 121.192 208.832 121.192ZM227.896 121.192C226.488 121.192 225.144 121 223.864 120.616C222.605 120.232 221.613 119.763 220.888 119.208L222.168 116.776C222.893 117.267 223.789 117.683 224.856 118.024C225.923 118.365 227.011 118.536 228.12 118.536C229.549 118.536 230.573 118.333 231.192 117.928C231.832 117.523 232.152 116.957 232.152 116.232C232.152 115.699 231.96 115.283 231.576 114.984C231.192 114.685 230.68 114.461 230.04 114.312C229.421 114.163 228.728 114.035 227.96 113.928C227.192 113.8 226.424 113.651 225.656 113.48C224.888 113.288 224.184 113.032 223.544 112.712C222.904 112.371 222.392 111.912 222.008 111.336C221.624 110.739 221.432 109.949 221.432 108.968C221.432 107.944 221.72 107.048 222.296 106.28C222.872 105.512 223.683 104.925 224.728 104.52C225.795 104.093 227.053 103.88 228.504 103.88C229.613 103.88 230.733 104.019 231.864 104.296C233.016 104.552 233.955 104.925 234.68 105.416L233.368 107.848C232.6 107.336 231.8 106.984 230.968 106.792C230.136 106.6 229.304 106.504 228.472 106.504C227.128 106.504 226.125 106.728 225.464 107.176C224.803 107.603 224.472 108.157 224.472 108.84C224.472 109.416 224.664 109.864 225.048 110.184C225.453 110.483 225.965 110.717 226.584 110.888C227.224 111.059 227.928 111.208 228.696 111.336C229.464 111.443 230.232 111.592 231 111.784C231.768 111.955 232.461 112.2 233.08 112.52C233.72 112.84 234.232 113.288 234.616 113.864C235.021 114.44 235.224 115.208 235.224 116.168C235.224 117.192 234.925 118.077 234.328 118.824C233.731 119.571 232.888 120.157 231.8 120.584C230.712 120.989 229.411 121.192 227.896 121.192ZM244.567 121.192C242.861 121.192 241.538 120.733 240.599 119.816C239.661 118.899 239.191 117.587 239.191 115.88V100.328H242.263V115.752C242.263 116.669 242.487 117.373 242.935 117.864C243.405 118.355 244.066 118.6 244.919 118.6C245.879 118.6 246.679 118.333 247.319 117.8L248.279 120.008C247.81 120.413 247.245 120.712 246.583 120.904C245.943 121.096 245.271 121.192 244.567 121.192ZM236.311 106.568V104.04H247.127V106.568H236.311ZM262.201 121V117.416L262.041 116.744V110.632C262.041 109.331 261.657 108.328 260.889 107.624C260.143 106.899 259.012 106.536 257.497 106.536C256.495 106.536 255.513 106.707 254.553 107.048C253.593 107.368 252.783 107.805 252.121 108.36L250.841 106.056C251.716 105.352 252.761 104.819 253.977 104.456C255.215 104.072 256.505 103.88 257.849 103.88C260.175 103.88 261.967 104.445 263.225 105.576C264.484 106.707 265.113 108.435 265.113 110.76V121H262.201ZM256.633 121.192C255.375 121.192 254.265 120.979 253.305 120.552C252.367 120.125 251.641 119.539 251.129 118.792C250.617 118.024 250.361 117.16 250.361 116.2C250.361 115.283 250.575 114.451 251.001 113.704C251.449 112.957 252.164 112.36 253.145 111.912C254.148 111.464 255.492 111.24 257.177 111.24H262.553V113.448H257.305C255.769 113.448 254.735 113.704 254.201 114.216C253.668 114.728 253.401 115.347 253.401 116.072C253.401 116.904 253.732 117.576 254.393 118.088C255.055 118.579 255.972 118.824 257.145 118.824C258.297 118.824 259.3 118.568 260.153 118.056C261.028 117.544 261.657 116.797 262.041 115.816L262.649 117.928C262.244 118.931 261.529 119.731 260.505 120.328C259.481 120.904 258.191 121.192 256.633 121.192ZM270.478 121V104.04H273.55V121H270.478ZM272.014 100.776C271.417 100.776 270.916 100.584 270.51 100.2C270.126 99.816 269.934 99.3467 269.934 98.792C269.934 98.216 270.126 97.736 270.51 97.352C270.916 96.968 271.417 96.776 272.014 96.776C272.612 96.776 273.102 96.968 273.486 97.352C273.892 97.7147 274.094 98.1733 274.094 98.728C274.094 99.304 273.902 99.7947 273.518 100.2C273.134 100.584 272.633 100.776 272.014 100.776ZM288.152 103.88C289.538 103.88 290.754 104.147 291.8 104.68C292.866 105.213 293.698 106.024 294.296 107.112C294.893 108.2 295.192 109.576 295.192 111.24V121H292.12V111.592C292.12 109.949 291.714 108.712 290.904 107.88C290.114 107.048 288.994 106.632 287.544 106.632C286.456 106.632 285.506 106.845 284.696 107.272C283.885 107.699 283.256 108.328 282.808 109.16C282.381 109.992 282.168 111.027 282.168 112.264V121H279.096V104.04H282.04V108.616L281.56 107.4C282.114 106.291 282.968 105.427 284.12 104.808C285.272 104.189 286.616 103.88 288.152 103.88ZM330.047 103.88C331.412 103.88 332.617 104.147 333.663 104.68C334.708 105.213 335.519 106.024 336.095 107.112C336.692 108.2 336.991 109.576 336.991 111.24V121H333.919V111.592C333.919 109.949 333.535 108.712 332.767 107.88C331.999 107.048 330.921 106.632 329.535 106.632C328.511 106.632 327.615 106.845 326.847 107.272C326.079 107.699 325.481 108.328 325.055 109.16C324.649 109.992 324.447 111.027 324.447 112.264V121H321.375V111.592C321.375 109.949 320.991 108.712 320.223 107.88C319.476 107.048 318.399 106.632 316.991 106.632C315.988 106.632 315.103 106.845 314.335 107.272C313.567 107.699 312.969 108.328 312.543 109.16C312.116 109.992 311.903 111.027 311.903 112.264V121H308.831V104.04H311.775V108.552L311.295 107.4C311.828 106.291 312.649 105.427 313.759 104.808C314.868 104.189 316.159 103.88 317.631 103.88C319.252 103.88 320.649 104.285 321.823 105.096C322.996 105.885 323.764 107.091 324.127 108.712L322.879 108.2C323.391 106.899 324.287 105.853 325.567 105.064C326.847 104.275 328.34 103.88 330.047 103.88ZM352.851 121V117.416L352.691 116.744V110.632C352.691 109.331 352.307 108.328 351.539 107.624C350.793 106.899 349.662 106.536 348.147 106.536C347.145 106.536 346.163 106.707 345.203 107.048C344.243 107.368 343.433 107.805 342.771 108.36L341.491 106.056C342.366 105.352 343.411 104.819 344.627 104.456C345.865 104.072 347.155 103.88 348.499 103.88C350.825 103.88 352.617 104.445 353.875 105.576C355.134 106.707 355.763 108.435 355.763 110.76V121H352.851ZM347.283 121.192C346.025 121.192 344.915 120.979 343.955 120.552C343.017 120.125 342.291 119.539 341.779 118.792C341.267 118.024 341.011 117.16 341.011 116.2C341.011 115.283 341.225 114.451 341.651 113.704C342.099 112.957 342.814 112.36 343.795 111.912C344.798 111.464 346.142 111.24 347.827 111.24H353.203V113.448H347.955C346.419 113.448 345.385 113.704 344.851 114.216C344.318 114.728 344.051 115.347 344.051 116.072C344.051 116.904 344.382 117.576 345.043 118.088C345.705 118.579 346.622 118.824 347.795 118.824C348.947 118.824 349.95 118.568 350.803 118.056C351.678 117.544 352.307 116.797 352.691 115.816L353.299 117.928C352.894 118.931 352.179 119.731 351.155 120.328C350.131 120.904 348.841 121.192 347.283 121.192ZM361.128 121V104.04H364.072V108.648L363.784 107.496C364.254 106.323 365.043 105.427 366.152 104.808C367.262 104.189 368.627 103.88 370.248 103.88V106.856C370.12 106.835 369.992 106.824 369.864 106.824C369.758 106.824 369.651 106.824 369.544 106.824C367.902 106.824 366.6 107.315 365.64 108.296C364.68 109.277 364.2 110.696 364.2 112.552V121H361.128ZM376.21 116.904L376.274 112.968L386.034 104.04H389.746L382.258 111.4L380.594 112.808L376.21 116.904ZM373.714 121V97.256H376.786V121H373.714ZM386.674 121L380.018 112.744L382.002 110.28L390.45 121H386.674ZM399.978 121.192C398.164 121.192 396.564 120.819 395.178 120.072C393.812 119.325 392.746 118.301 391.978 117C391.231 115.699 390.858 114.205 390.858 112.52C390.858 110.835 391.22 109.341 391.946 108.04C392.692 106.739 393.706 105.725 394.986 105C396.287 104.253 397.748 103.88 399.37 103.88C401.012 103.88 402.463 104.243 403.722 104.968C404.98 105.693 405.962 106.717 406.666 108.04C407.391 109.341 407.754 110.867 407.754 112.616C407.754 112.744 407.743 112.893 407.722 113.064C407.722 113.235 407.711 113.395 407.69 113.544H393.258V111.336H406.09L404.842 112.104C404.863 111.016 404.639 110.045 404.17 109.192C403.7 108.339 403.05 107.677 402.218 107.208C401.407 106.717 400.458 106.472 399.37 106.472C398.303 106.472 397.354 106.717 396.522 107.208C395.69 107.677 395.039 108.349 394.57 109.224C394.1 110.077 393.866 111.059 393.866 112.168V112.68C393.866 113.811 394.122 114.824 394.634 115.72C395.167 116.595 395.903 117.277 396.842 117.768C397.78 118.259 398.858 118.504 400.074 118.504C401.076 118.504 401.983 118.333 402.794 117.992C403.626 117.651 404.351 117.139 404.97 116.456L406.666 118.44C405.898 119.336 404.938 120.019 403.786 120.488C402.655 120.957 401.386 121.192 399.978 121.192ZM417.524 121.192C415.817 121.192 414.494 120.733 413.556 119.816C412.617 118.899 412.148 117.587 412.148 115.88V100.328H415.22V115.752C415.22 116.669 415.444 117.373 415.892 117.864C416.361 118.355 417.022 118.6 417.876 118.6C418.836 118.6 419.636 118.333 420.276 117.8L421.236 120.008C420.766 120.413 420.201 120.712 419.54 120.904C418.9 121.096 418.228 121.192 417.524 121.192ZM409.268 106.568V104.04H420.084V106.568H409.268ZM432.903 121V97.256H435.975V121H432.903ZM449.073 121.192C447.259 121.192 445.659 120.819 444.273 120.072C442.907 119.325 441.841 118.301 441.073 117C440.326 115.699 439.953 114.205 439.953 112.52C439.953 110.835 440.315 109.341 441.041 108.04C441.787 106.739 442.801 105.725 444.081 105C445.382 104.253 446.843 103.88 448.465 103.88C450.107 103.88 451.558 104.243 452.817 104.968C454.075 105.693 455.057 106.717 455.761 108.04C456.486 109.341 456.849 110.867 456.849 112.616C456.849 112.744 456.838 112.893 456.817 113.064C456.817 113.235 456.806 113.395 456.785 113.544H442.353V111.336H455.185L453.937 112.104C453.958 111.016 453.734 110.045 453.265 109.192C452.795 108.339 452.145 107.677 451.313 107.208C450.502 106.717 449.553 106.472 448.465 106.472C447.398 106.472 446.449 106.717 445.617 107.208C444.785 107.677 444.134 108.349 443.665 109.224C443.195 110.077 442.961 111.059 442.961 112.168V112.68C442.961 113.811 443.217 114.824 443.729 115.72C444.262 116.595 444.998 117.277 445.937 117.768C446.875 118.259 447.953 118.504 449.169 118.504C450.171 118.504 451.078 118.333 451.889 117.992C452.721 117.651 453.446 117.139 454.065 116.456L455.761 118.44C454.993 119.336 454.033 120.019 452.881 120.488C451.75 120.957 450.481 121.192 449.073 121.192ZM470.854 121V117.416L470.694 116.744V110.632C470.694 109.331 470.31 108.328 469.542 107.624C468.795 106.899 467.664 106.536 466.15 106.536C465.147 106.536 464.166 106.707 463.206 107.048C462.246 107.368 461.435 107.805 460.774 108.36L459.494 106.056C460.368 105.352 461.414 104.819 462.63 104.456C463.867 104.072 465.158 103.88 466.502 103.88C468.827 103.88 470.619 104.445 471.878 105.576C473.136 106.707 473.766 108.435 473.766 110.76V121H470.854ZM465.286 121.192C464.027 121.192 462.918 120.979 461.958 120.552C461.019 120.125 460.294 119.539 459.782 118.792C459.27 118.024 459.014 117.16 459.014 116.2C459.014 115.283 459.227 114.451 459.654 113.704C460.102 112.957 460.816 112.36 461.798 111.912C462.8 111.464 464.144 111.24 465.83 111.24H471.206V113.448H465.958C464.422 113.448 463.387 113.704 462.854 114.216C462.32 114.728 462.054 115.347 462.054 116.072C462.054 116.904 462.384 117.576 463.046 118.088C463.707 118.579 464.624 118.824 465.798 118.824C466.95 118.824 467.952 118.568 468.806 118.056C469.68 117.544 470.31 116.797 470.694 115.816L471.302 117.928C470.896 118.931 470.182 119.731 469.158 120.328C468.134 120.904 466.843 121.192 465.286 121.192ZM486.139 121.192C484.496 121.192 483.024 120.829 481.723 120.104C480.443 119.379 479.429 118.365 478.683 117.064C477.936 115.763 477.563 114.248 477.563 112.52C477.563 110.792 477.936 109.288 478.683 108.008C479.429 106.707 480.443 105.693 481.723 104.968C483.024 104.243 484.496 103.88 486.139 103.88C487.568 103.88 488.859 104.2 490.011 104.84C491.163 105.48 492.08 106.44 492.763 107.72C493.467 109 493.819 110.6 493.819 112.52C493.819 114.44 493.477 116.04 492.795 117.32C492.133 118.6 491.227 119.571 490.075 120.232C488.923 120.872 487.611 121.192 486.139 121.192ZM486.395 118.504C487.461 118.504 488.421 118.259 489.275 117.768C490.149 117.277 490.832 116.584 491.323 115.688C491.835 114.771 492.091 113.715 492.091 112.52C492.091 111.304 491.835 110.259 491.323 109.384C490.832 108.488 490.149 107.795 489.275 107.304C488.421 106.813 487.461 106.568 486.395 106.568C485.307 106.568 484.336 106.813 483.483 107.304C482.629 107.795 481.947 108.488 481.435 109.384C480.923 110.259 480.667 111.304 480.667 112.52C480.667 113.715 480.923 114.771 481.435 115.688C481.947 116.584 482.629 117.277 483.483 117.768C484.336 118.259 485.307 118.504 486.395 118.504ZM492.187 121V116.424L492.379 112.488L492.059 108.552V97.256H495.131V121H492.187ZM508.175 121.192C506.362 121.192 504.762 120.819 503.375 120.072C502.01 119.325 500.943 118.301 500.175 117C499.429 115.699 499.055 114.205 499.055 112.52C499.055 110.835 499.418 109.341 500.143 108.04C500.89 106.739 501.903 105.725 503.183 105C504.485 104.253 505.946 103.88 507.567 103.88C509.21 103.88 510.661 104.243 511.919 104.968C513.178 105.693 514.159 106.717 514.863 108.04C515.589 109.341 515.951 110.867 515.951 112.616C515.951 112.744 515.941 112.893 515.919 113.064C515.919 113.235 515.909 113.395 515.887 113.544H501.455V111.336H514.287L513.039 112.104C513.061 111.016 512.837 110.045 512.367 109.192C511.898 108.339 511.247 107.677 510.415 107.208C509.605 106.717 508.655 106.472 507.567 106.472C506.501 106.472 505.551 106.717 504.719 107.208C503.887 107.677 503.237 108.349 502.767 109.224C502.298 110.077 502.063 111.059 502.063 112.168V112.68C502.063 113.811 502.319 114.824 502.831 115.72C503.365 116.595 504.101 117.277 505.039 117.768C505.978 118.259 507.055 118.504 508.271 118.504C509.274 118.504 510.181 118.333 510.991 117.992C511.823 117.651 512.549 117.139 513.167 116.456L514.863 118.44C514.095 119.336 513.135 120.019 511.983 120.488C510.853 120.957 509.583 121.192 508.175 121.192ZM519.897 121V104.04H522.841V108.648L522.553 107.496C523.022 106.323 523.812 105.427 524.921 104.808C526.03 104.189 527.396 103.88 529.017 103.88V106.856C528.889 106.835 528.761 106.824 528.633 106.824C528.526 106.824 528.42 106.824 528.313 106.824C526.67 106.824 525.369 107.315 524.409 108.296C523.449 109.277 522.969 110.696 522.969 112.552V121H519.897ZM537.535 121.192C536.127 121.192 534.783 121 533.503 120.616C532.244 120.232 531.252 119.763 530.527 119.208L531.807 116.776C532.532 117.267 533.428 117.683 534.495 118.024C535.561 118.365 536.649 118.536 537.759 118.536C539.188 118.536 540.212 118.333 540.831 117.928C541.471 117.523 541.791 116.957 541.791 116.232C541.791 115.699 541.599 115.283 541.215 114.984C540.831 114.685 540.319 114.461 539.679 114.312C539.06 114.163 538.367 114.035 537.599 113.928C536.831 113.8 536.063 113.651 535.295 113.48C534.527 113.288 533.823 113.032 533.183 112.712C532.543 112.371 532.031 111.912 531.647 111.336C531.263 110.739 531.071 109.949 531.071 108.968C531.071 107.944 531.359 107.048 531.935 106.28C532.511 105.512 533.321 104.925 534.367 104.52C535.433 104.093 536.692 103.88 538.143 103.88C539.252 103.88 540.372 104.019 541.503 104.296C542.655 104.552 543.593 104.925 544.319 105.416L543.007 107.848C542.239 107.336 541.439 106.984 540.607 106.792C539.775 106.6 538.943 106.504 538.111 106.504C536.767 106.504 535.764 106.728 535.103 107.176C534.441 107.603 534.111 108.157 534.111 108.84C534.111 109.416 534.303 109.864 534.687 110.184C535.092 110.483 535.604 110.717 536.223 110.888C536.863 111.059 537.567 111.208 538.335 111.336C539.103 111.443 539.871 111.592 540.639 111.784C541.407 111.955 542.1 112.2 542.719 112.52C543.359 112.84 543.871 113.288 544.255 113.864C544.66 114.44 544.863 115.208 544.863 116.168C544.863 117.192 544.564 118.077 543.967 118.824C543.369 119.571 542.527 120.157 541.439 120.584C540.351 120.989 539.049 121.192 537.535 121.192Z" fill="#F5F5F5"/>
<path d="M400.814 33.192C399.406 33.192 398.062 33 396.782 32.616C395.523 32.232 394.531 31.7627 393.806 31.208L395.086 28.776C395.811 29.2667 396.707 29.6827 397.774 30.024C398.84 30.3653 399.928 30.536 401.038 30.536C402.467 30.536 403.491 30.3333 404.11 29.928C404.75 29.5227 405.07 28.9573 405.07 28.232C405.07 27.6987 404.878 27.2827 404.494 26.984C404.11 26.6853 403.598 26.4613 402.958 26.312C402.339 26.1627 401.646 26.0347 400.878 25.928C400.11 25.8 399.342 25.6507 398.574 25.48C397.806 25.288 397.102 25.032 396.462 24.712C395.822 24.3707 395.31 23.912 394.926 23.336C394.542 22.7387 394.35 21.9493 394.35 20.968C394.35 19.944 394.638 19.048 395.214 18.28C395.79 17.512 396.6 16.9253 397.646 16.52C398.712 16.0933 399.971 15.88 401.422 15.88C402.531 15.88 403.651 16.0187 404.782 16.296C405.934 16.552 406.872 16.9253 407.598 17.416L406.286 19.848C405.518 19.336 404.718 18.984 403.886 18.792C403.054 18.6 402.222 18.504 401.39 18.504C400.046 18.504 399.043 18.728 398.382 19.176C397.72 19.6027 397.39 20.1573 397.39 20.84C397.39 21.416 397.582 21.864 397.966 22.184C398.371 22.4827 398.883 22.7173 399.502 22.888C400.142 23.0587 400.846 23.208 401.614 23.336C402.382 23.4427 403.15 23.592 403.918 23.784C404.686 23.9547 405.379 24.2 405.998 24.52C406.638 24.84 407.15 25.288 407.534 25.864C407.939 26.44 408.142 27.208 408.142 28.168C408.142 29.192 407.843 30.0773 407.246 30.824C406.648 31.5707 405.806 32.1573 404.718 32.584C403.63 32.9893 402.328 33.192 400.814 33.192ZM417.485 33.192C415.778 33.192 414.455 32.7333 413.517 31.816C412.578 30.8987 412.109 29.5867 412.109 27.88V12.328H415.181V27.752C415.181 28.6693 415.405 29.3733 415.853 29.864C416.322 30.3547 416.983 30.6 417.837 30.6C418.797 30.6 419.597 30.3333 420.237 29.8L421.197 32.008C420.727 32.4133 420.162 32.712 419.501 32.904C418.861 33.096 418.189 33.192 417.485 33.192ZM409.229 18.568V16.04H420.045V18.568H409.229ZM424.591 33V16.04H427.535V20.648L427.247 19.496C427.716 18.3227 428.505 17.4267 429.615 16.808C430.724 16.1893 432.089 15.88 433.711 15.88V18.856C433.583 18.8347 433.455 18.824 433.327 18.824C433.22 18.824 433.113 18.824 433.007 18.824C431.364 18.824 430.063 19.3147 429.103 20.296C428.143 21.2773 427.663 22.696 427.663 24.552V33H424.591ZM446.455 33V29.416L446.295 28.744V22.632C446.295 21.3307 445.911 20.328 445.143 19.624C444.396 18.8987 443.266 18.536 441.751 18.536C440.748 18.536 439.767 18.7067 438.807 19.048C437.847 19.368 437.036 19.8053 436.375 20.36L435.095 18.056C435.97 17.352 437.015 16.8187 438.231 16.456C439.468 16.072 440.759 15.88 442.103 15.88C444.428 15.88 446.22 16.4453 447.479 17.576C448.738 18.7067 449.367 20.4347 449.367 22.76V33H446.455ZM440.887 33.192C439.628 33.192 438.519 32.9787 437.559 32.552C436.62 32.1253 435.895 31.5387 435.383 30.792C434.871 30.024 434.615 29.16 434.615 28.2C434.615 27.2827 434.828 26.4507 435.255 25.704C435.703 24.9573 436.418 24.36 437.399 23.912C438.402 23.464 439.746 23.24 441.431 23.24H446.807V25.448H441.559C440.023 25.448 438.988 25.704 438.455 26.216C437.922 26.728 437.655 27.3467 437.655 28.072C437.655 28.904 437.986 29.576 438.647 30.088C439.308 30.5787 440.226 30.824 441.399 30.824C442.551 30.824 443.554 30.568 444.407 30.056C445.282 29.544 445.911 28.7973 446.295 27.816L446.903 29.928C446.498 30.9307 445.783 31.7307 444.759 32.328C443.735 32.904 442.444 33.192 440.887 33.192ZM460.556 33.192C458.849 33.192 457.527 32.7333 456.588 31.816C455.649 30.8987 455.18 29.5867 455.18 27.88V12.328H458.252V27.752C458.252 28.6693 458.476 29.3733 458.924 29.864C459.393 30.3547 460.055 30.6 460.908 30.6C461.868 30.6 462.668 30.3333 463.308 29.8L464.268 32.008C463.799 32.4133 463.233 32.712 462.572 32.904C461.932 33.096 461.26 33.192 460.556 33.192ZM452.3 18.568V16.04H463.116V18.568H452.3ZM474.652 33.192C472.838 33.192 471.238 32.8187 469.852 32.072C468.486 31.3253 467.42 30.3013 466.652 29C465.905 27.6987 465.532 26.2053 465.532 24.52C465.532 22.8347 465.894 21.3413 466.62 20.04C467.366 18.7387 468.38 17.7253 469.66 17C470.961 16.2533 472.422 15.88 474.044 15.88C475.686 15.88 477.137 16.2427 478.396 16.968C479.654 17.6933 480.636 18.7173 481.34 20.04C482.065 21.3413 482.428 22.8667 482.428 24.616C482.428 24.744 482.417 24.8933 482.396 25.064C482.396 25.2347 482.385 25.3947 482.364 25.544H467.932V23.336H480.764L479.516 24.104C479.537 23.016 479.313 22.0453 478.844 21.192C478.374 20.3387 477.724 19.6773 476.892 19.208C476.081 18.7173 475.132 18.472 474.044 18.472C472.977 18.472 472.028 18.7173 471.196 19.208C470.364 19.6773 469.713 20.3493 469.244 21.224C468.774 22.0773 468.54 23.0587 468.54 24.168V24.68C468.54 25.8107 468.796 26.824 469.308 27.72C469.841 28.5947 470.577 29.2773 471.516 29.768C472.454 30.2587 473.532 30.504 474.748 30.504C475.75 30.504 476.657 30.3333 477.468 29.992C478.3 29.6507 479.025 29.1387 479.644 28.456L481.34 30.44C480.572 31.336 479.612 32.0187 478.46 32.488C477.329 32.9573 476.06 33.192 474.652 33.192ZM493.797 39.4C492.24 39.4 490.725 39.176 489.253 38.728C487.803 38.3013 486.619 37.6827 485.701 36.872L487.173 34.504C487.963 35.1867 488.933 35.72 490.085 36.104C491.237 36.5093 492.443 36.712 493.701 36.712C495.707 36.712 497.179 36.2427 498.117 35.304C499.056 34.3653 499.525 32.936 499.525 31.016V27.432L499.845 24.072L499.685 20.68V16.04H502.597V30.696C502.597 33.6827 501.851 35.88 500.357 37.288C498.864 38.696 496.677 39.4 493.797 39.4ZM493.413 32.296C491.771 32.296 490.299 31.9547 488.997 31.272C487.717 30.568 486.693 29.5973 485.925 28.36C485.179 27.1227 484.805 25.6933 484.805 24.072C484.805 22.4293 485.179 21 485.925 19.784C486.693 18.5467 487.717 17.5867 488.997 16.904C490.299 16.2213 491.771 15.88 493.413 15.88C494.864 15.88 496.187 16.1787 497.381 16.776C498.576 17.352 499.525 18.248 500.229 19.464C500.955 20.68 501.317 22.216 501.317 24.072C501.317 25.9067 500.955 27.432 500.229 28.648C499.525 29.864 498.576 30.7813 497.381 31.4C496.187 31.9973 494.864 32.296 493.413 32.296ZM493.765 29.608C494.896 29.608 495.899 29.3733 496.773 28.904C497.648 28.4347 498.331 27.784 498.821 26.952C499.333 26.12 499.589 25.16 499.589 24.072C499.589 22.984 499.333 22.024 498.821 21.192C498.331 20.36 497.648 19.72 496.773 19.272C495.899 18.8027 494.896 18.568 493.765 18.568C492.635 18.568 491.621 18.8027 490.725 19.272C489.851 19.72 489.157 20.36 488.645 21.192C488.155 22.024 487.909 22.984 487.909 24.072C487.909 25.16 488.155 26.12 488.645 26.952C489.157 27.784 489.851 28.4347 490.725 28.904C491.621 29.3733 492.635 29.608 493.765 29.608ZM508.883 39.4C508.072 39.4 507.283 39.2613 506.515 38.984C505.747 38.728 505.086 38.344 504.531 37.832L505.843 35.528C506.27 35.9333 506.739 36.2427 507.251 36.456C507.763 36.6693 508.307 36.776 508.883 36.776C509.63 36.776 510.248 36.584 510.739 36.2C511.23 35.816 511.688 35.1333 512.115 34.152L513.171 31.816L513.491 31.432L520.147 16.04H523.155L514.931 34.696C514.44 35.8907 513.886 36.8293 513.267 37.512C512.67 38.1947 512.008 38.6747 511.283 38.952C510.558 39.2507 509.758 39.4 508.883 39.4ZM512.915 33.544L505.171 16.04H508.371L514.963 31.144L512.915 33.544Z" fill="url(#paint0_linear_2_1141)"/>
<rect x="10.5" y="35.5" width="10" height="10" stroke="#33FFF3"/>
<rect x="153.5" y="35.5" width="10" height="10" stroke="#33FFF3"/>
<rect x="10.5" y="86.5" width="10" height="10" stroke="#33FFF3"/>
<rect x="153.5" y="86.5" width="10" height="10" stroke="#33FFF3"/>
<path d="M42.92 77.192C41.2773 77.192 39.8053 76.8293 38.504 76.104C37.224 75.3787 36.2107 74.3653 35.464 73.064C34.7173 71.7627 34.344 70.248 34.344 68.52C34.344 66.792 34.7173 65.288 35.464 64.008C36.2107 62.7067 37.224 61.6933 38.504 60.968C39.8053 60.2427 41.2773 59.88 42.92 59.88C44.3493 59.88 45.64 60.2 46.792 60.84C47.944 61.48 48.8613 62.44 49.544 63.72C50.248 65 50.6 66.6 50.6 68.52C50.6 70.44 50.2587 72.04 49.576 73.32C48.9147 74.6 48.008 75.5707 46.856 76.232C45.704 76.872 44.392 77.192 42.92 77.192ZM43.176 74.504C44.2427 74.504 45.2027 74.2587 46.056 73.768C46.9307 73.2773 47.6133 72.584 48.104 71.688C48.616 70.7707 48.872 69.7147 48.872 68.52C48.872 67.304 48.616 66.2587 48.104 65.384C47.6133 64.488 46.9307 63.7947 46.056 63.304C45.2027 62.8133 44.2427 62.568 43.176 62.568C42.088 62.568 41.1173 62.8133 40.264 63.304C39.4107 63.7947 38.728 64.488 38.216 65.384C37.704 66.2587 37.448 67.304 37.448 68.52C37.448 69.7147 37.704 70.7707 38.216 71.688C38.728 72.584 39.4107 73.2773 40.264 73.768C41.1173 74.2587 42.088 74.504 43.176 74.504ZM48.968 77V72.424L49.16 68.488L48.84 64.552V53.256H51.912V77H48.968ZM65.2765 77.192C63.4632 77.192 61.8632 76.8187 60.4765 76.072C59.1112 75.3253 58.0445 74.3013 57.2765 73C56.5298 71.6987 56.1565 70.2053 56.1565 68.52C56.1565 66.8347 56.5192 65.3413 57.2445 64.04C57.9912 62.7387 59.0045 61.7253 60.2845 61C61.5858 60.2533 63.0472 59.88 64.6685 59.88C66.3112 59.88 67.7618 60.2427 69.0205 60.968C70.2792 61.6933 71.2605 62.7173 71.9645 64.04C72.6898 65.3413 73.0525 66.8667 73.0525 68.616C73.0525 68.744 73.0418 68.8933 73.0205 69.064C73.0205 69.2347 73.0098 69.3947 72.9885 69.544H58.5565V67.336H71.3885L70.1405 68.104C70.1618 67.016 69.9378 66.0453 69.4685 65.192C68.9992 64.3387 68.3485 63.6773 67.5165 63.208C66.7058 62.7173 65.7565 62.472 64.6685 62.472C63.6018 62.472 62.6525 62.7173 61.8205 63.208C60.9885 63.6773 60.3378 64.3493 59.8685 65.224C59.3992 66.0773 59.1645 67.0587 59.1645 68.168V68.68C59.1645 69.8107 59.4205 70.824 59.9325 71.72C60.4658 72.5947 61.2018 73.2773 62.1405 73.768C63.0792 74.2587 64.1565 74.504 65.3725 74.504C66.3752 74.504 67.2818 74.3333 68.0925 73.992C68.9245 73.6507 69.6498 73.1387 70.2685 72.456L71.9645 74.44C71.1965 75.336 70.2365 76.0187 69.0845 76.488C67.9538 76.9573 66.6845 77.192 65.2765 77.192ZM82.1823 77.192C80.7743 77.192 79.4303 77 78.1503 76.616C76.8916 76.232 75.8996 75.7627 75.1743 75.208L76.4543 72.776C77.1796 73.2667 78.0756 73.6827 79.1423 74.024C80.2089 74.3653 81.2969 74.536 82.4062 74.536C83.8356 74.536 84.8596 74.3333 85.4783 73.928C86.1183 73.5227 86.4383 72.9573 86.4383 72.232C86.4383 71.6987 86.2463 71.2827 85.8623 70.984C85.4783 70.6853 84.9663 70.4613 84.3263 70.312C83.7076 70.1627 83.0143 70.0347 82.2463 69.928C81.4783 69.8 80.7103 69.6507 79.9423 69.48C79.1743 69.288 78.4703 69.032 77.8303 68.712C77.1903 68.3707 76.6783 67.912 76.2943 67.336C75.9103 66.7387 75.7183 65.9493 75.7183 64.968C75.7183 63.944 76.0063 63.048 76.5823 62.28C77.1583 61.512 77.9689 60.9253 79.0143 60.52C80.0809 60.0933 81.3396 59.88 82.7903 59.88C83.8996 59.88 85.0196 60.0187 86.1503 60.296C87.3023 60.552 88.2409 60.9253 88.9663 61.416L87.6543 63.848C86.8863 63.336 86.0863 62.984 85.2543 62.792C84.4223 62.6 83.5903 62.504 82.7583 62.504C81.4143 62.504 80.4116 62.728 79.7503 63.176C79.0889 63.6027 78.7583 64.1573 78.7583 64.84C78.7583 65.416 78.9503 65.864 79.3343 66.184C79.7396 66.4827 80.2516 66.7173 80.8703 66.888C81.5103 67.0587 82.2143 67.208 82.9823 67.336C83.7503 67.4427 84.5183 67.592 85.2863 67.784C86.0543 67.9547 86.7476 68.2 87.3663 68.52C88.0063 68.84 88.5183 69.288 88.9023 69.864C89.3076 70.44 89.5103 71.208 89.5103 72.168C89.5103 73.192 89.2116 74.0773 88.6143 74.824C88.0169 75.5707 87.1743 76.1573 86.0863 76.584C84.9983 76.9893 83.6969 77.192 82.1823 77.192ZM93.3495 77V60.04H96.4215V77H93.3495ZM94.8855 56.776C94.2882 56.776 93.7868 56.584 93.3815 56.2C92.9975 55.816 92.8055 55.3467 92.8055 54.792C92.8055 54.216 92.9975 53.736 93.3815 53.352C93.7868 52.968 94.2882 52.776 94.8855 52.776C95.4828 52.776 95.9735 52.968 96.3575 53.352C96.7628 53.7147 96.9655 54.1733 96.9655 54.728C96.9655 55.304 96.7735 55.7947 96.3895 56.2C96.0055 56.584 95.5042 56.776 94.8855 56.776ZM109.711 83.4C108.154 83.4 106.639 83.176 105.167 82.728C103.716 82.3013 102.532 81.6827 101.615 80.872L103.087 78.504C103.876 79.1867 104.847 79.72 105.999 80.104C107.151 80.5093 108.356 80.712 109.615 80.712C111.62 80.712 113.092 80.2427 114.031 79.304C114.97 78.3653 115.439 76.936 115.439 75.016V71.432L115.759 68.072L115.599 64.68V60.04H118.511V74.696C118.511 77.6827 117.764 79.88 116.271 81.288C114.778 82.696 112.591 83.4 109.711 83.4ZM109.327 76.296C107.684 76.296 106.212 75.9547 104.911 75.272C103.631 74.568 102.607 73.5973 101.839 72.36C101.092 71.1227 100.719 69.6933 100.719 68.072C100.719 66.4293 101.092 65 101.839 63.784C102.607 62.5467 103.631 61.5867 104.911 60.904C106.212 60.2213 107.684 59.88 109.327 59.88C110.778 59.88 112.1 60.1787 113.295 60.776C114.49 61.352 115.439 62.248 116.143 63.464C116.868 64.68 117.231 66.216 117.231 68.072C117.231 69.9067 116.868 71.432 116.143 72.648C115.439 73.864 114.49 74.7813 113.295 75.4C112.1 75.9973 110.778 76.296 109.327 76.296ZM109.679 73.608C110.81 73.608 111.812 73.3733 112.687 72.904C113.562 72.4347 114.244 71.784 114.735 70.952C115.247 70.12 115.503 69.16 115.503 68.072C115.503 66.984 115.247 66.024 114.735 65.192C114.244 64.36 113.562 63.72 112.687 63.272C111.812 62.8027 110.81 62.568 109.679 62.568C108.548 62.568 107.535 62.8027 106.639 63.272C105.764 63.72 105.071 64.36 104.559 65.192C104.068 66.024 103.823 66.984 103.823 68.072C103.823 69.16 104.068 70.12 104.559 70.952C105.071 71.784 105.764 72.4347 106.639 72.904C107.535 73.3733 108.548 73.608 109.679 73.608ZM133.437 59.88C134.823 59.88 136.039 60.1467 137.085 60.68C138.151 61.2133 138.983 62.024 139.581 63.112C140.178 64.2 140.477 65.576 140.477 67.24V77H137.405V67.592C137.405 65.9493 136.999 64.712 136.189 63.88C135.399 63.048 134.279 62.632 132.829 62.632C131.741 62.632 130.791 62.8453 129.981 63.272C129.17 63.6987 128.541 64.328 128.093 65.16C127.666 65.992 127.453 67.0267 127.453 68.264V77H124.381V60.04H127.325V64.616L126.845 63.4C127.399 62.2907 128.253 61.4267 129.405 60.808C130.557 60.1893 131.901 59.88 133.437 59.88Z" fill="#33FFF3"/>
<path d="M16 46V86" stroke="#33FFF3"/>
<path d="M159 46L159 86" stroke="#33FFF3"/>
<path d="M21 92L153 92" stroke="#33FFF3"/>
<path d="M21 41L153 41" stroke="#33FFF3"/>
<path d="M259.776 75.464L247.84 67.368V65.384L259.776 57.288V59.816L250.144 66.312V66.44L259.776 72.936V75.464ZM275.764 77.384C274.185 77.384 272.937 77.1067 272.02 76.552C271.124 75.9973 270.484 75.2293 270.1 74.248C269.716 73.2667 269.524 72.1253 269.524 70.824V63.912H265.236V61.544L269.652 61.352L270.068 56.424H272.692V61.352H280.083V63.912H272.692V70.824C272.692 71.6987 272.809 72.4453 273.044 73.064C273.278 73.6613 273.673 74.1093 274.228 74.408C274.782 74.6853 275.529 74.824 276.468 74.824C277.172 74.824 277.812 74.7707 278.388 74.664C278.964 74.536 279.518 74.376 280.052 74.184L280.692 76.488C279.988 76.7227 279.23 76.9253 278.42 77.096C277.63 77.288 276.745 77.384 275.764 77.384ZM292.935 77.384C291.356 77.384 289.916 77.064 288.615 76.424C287.335 75.784 286.322 74.8453 285.575 73.608C284.828 72.3707 284.455 70.888 284.455 69.16C284.455 67.4533 284.828 65.992 285.575 64.776C286.343 63.56 287.335 62.6213 288.551 61.96C289.767 61.2987 291.068 60.968 292.455 60.968C293.991 60.968 295.292 61.288 296.359 61.928C297.426 62.5467 298.236 63.4107 298.791 64.52C299.367 65.608 299.655 66.888 299.655 68.36C299.655 68.68 299.644 69 299.623 69.32C299.602 69.6187 299.57 69.8747 299.527 70.088H286.663V67.752H297.543L296.839 68.52C296.839 66.8347 296.455 65.576 295.687 64.744C294.919 63.8907 293.874 63.464 292.551 63.464C291.634 63.464 290.791 63.688 290.023 64.136C289.276 64.5627 288.679 65.2027 288.231 66.056C287.783 66.888 287.559 67.9227 287.559 69.16C287.559 70.44 287.804 71.5067 288.295 72.36C288.807 73.192 289.49 73.8213 290.343 74.248C291.218 74.6747 292.22 74.888 293.351 74.888C294.226 74.888 295.026 74.7707 295.751 74.536C296.476 74.28 297.191 73.9387 297.895 73.512L299.015 75.528C298.226 76.0613 297.319 76.5093 296.295 76.872C295.271 77.2133 294.151 77.384 292.935 77.384ZM312.603 77.384C310.981 77.384 309.52 77.064 308.219 76.424C306.917 75.784 305.883 74.856 305.115 73.64C304.368 72.4027 303.995 70.92 303.995 69.192C303.995 67.464 304.4 65.992 305.211 64.776C306.021 63.5387 307.088 62.6 308.411 61.96C309.755 61.2987 311.216 60.968 312.795 60.968C314.075 60.968 315.195 61.192 316.155 61.64C317.115 62.0667 317.915 62.5893 318.555 63.208L317.019 65.224C316.379 64.712 315.728 64.3173 315.067 64.04C314.427 63.7413 313.723 63.592 312.955 63.592C311.845 63.592 310.853 63.8267 309.979 64.296C309.125 64.7653 308.453 65.4267 307.963 66.28C307.493 67.112 307.259 68.0827 307.259 69.192C307.259 70.3227 307.493 71.304 307.963 72.136C308.432 72.968 309.083 73.6187 309.915 74.088C310.768 74.5573 311.749 74.792 312.859 74.792C313.797 74.792 314.651 74.6107 315.419 74.248C316.187 73.8853 316.88 73.448 317.499 72.936L318.875 74.984C318 75.752 317.019 76.3493 315.931 76.776C314.864 77.1813 313.755 77.384 312.603 77.384ZM323.566 77V54.312H326.734V60.328L326.542 63.848H326.638C327.385 63.0587 328.217 62.3867 329.134 61.832C330.051 61.256 331.107 60.968 332.302 60.968C334.137 60.968 335.481 61.5227 336.334 62.632C337.187 63.72 337.614 65.2773 337.614 67.304V77H334.446V67.72C334.446 66.3547 334.19 65.352 333.678 64.712C333.187 64.0507 332.355 63.72 331.182 63.72C330.35 63.72 329.603 63.9333 328.942 64.36C328.281 64.7653 327.545 65.384 326.734 66.216V77H323.566ZM342.754 77V61.352H345.346L345.602 63.88H345.73C346.519 63.0693 347.372 62.3867 348.29 61.832C349.207 61.256 350.274 60.968 351.49 60.968C353.303 60.968 354.636 61.5227 355.49 62.632C356.364 63.72 356.802 65.2773 356.802 67.304V77H353.634V67.72C353.634 66.3547 353.378 65.352 352.866 64.712C352.375 64.0507 351.543 63.72 350.37 63.72C349.538 63.72 348.791 63.9333 348.13 64.36C347.468 64.7653 346.732 65.384 345.922 66.216V77H342.754ZM368.725 77.384C367.36 77.384 366.08 77.064 364.885 76.424C363.712 75.784 362.752 74.856 362.005 73.64C361.28 72.4027 360.917 70.92 360.917 69.192C360.917 67.464 361.28 65.992 362.005 64.776C362.752 63.5387 363.712 62.6 364.885 61.96C366.08 61.2987 367.36 60.968 368.725 60.968C370.09 60.968 371.36 61.2987 372.533 61.96C373.728 62.6 374.688 63.5387 375.413 64.776C376.16 65.992 376.533 67.464 376.533 69.192C376.533 70.92 376.16 72.4027 375.413 73.64C374.688 74.856 373.728 75.784 372.533 76.424C371.36 77.064 370.09 77.384 368.725 77.384ZM368.725 74.792C369.642 74.792 370.442 74.5573 371.125 74.088C371.808 73.6187 372.33 72.968 372.693 72.136C373.077 71.304 373.269 70.3227 373.269 69.192C373.269 68.0827 373.077 67.112 372.693 66.28C372.33 65.4267 371.808 64.7653 371.125 64.296C370.442 63.8267 369.642 63.592 368.725 63.592C367.808 63.592 367.008 63.8267 366.325 64.296C365.642 64.7653 365.109 65.4267 364.725 66.28C364.362 67.112 364.181 68.0827 364.181 69.192C364.181 70.3227 364.362 71.304 364.725 72.136C365.109 72.968 365.642 73.6187 366.325 74.088C367.008 74.5573 367.808 74.792 368.725 74.792ZM391.209 77.384C389.481 77.384 388.158 76.8827 387.241 75.88C386.323 74.856 385.865 73.4053 385.865 71.528V56.872H380.649V54.312H389.033V71.72C389.033 72.808 389.31 73.5973 389.865 74.088C390.419 74.5573 391.113 74.792 391.945 74.792C392.371 74.792 392.809 74.7387 393.257 74.632C393.726 74.5253 394.238 74.3547 394.793 74.12L395.561 76.488C394.814 76.744 394.121 76.9573 393.481 77.128C392.862 77.2987 392.105 77.384 391.209 77.384ZM407.1 77.384C405.735 77.384 404.455 77.064 403.26 76.424C402.087 75.784 401.127 74.856 400.38 73.64C399.655 72.4027 399.292 70.92 399.292 69.192C399.292 67.464 399.655 65.992 400.38 64.776C401.127 63.5387 402.087 62.6 403.26 61.96C404.455 61.2987 405.735 60.968 407.1 60.968C408.465 60.968 409.735 61.2987 410.908 61.96C412.103 62.6 413.063 63.5387 413.788 64.776C414.535 65.992 414.908 67.464 414.908 69.192C414.908 70.92 414.535 72.4027 413.788 73.64C413.063 74.856 412.103 75.784 410.908 76.424C409.735 77.064 408.465 77.384 407.1 77.384ZM407.1 74.792C408.017 74.792 408.817 74.5573 409.5 74.088C410.183 73.6187 410.705 72.968 411.068 72.136C411.452 71.304 411.644 70.3227 411.644 69.192C411.644 68.0827 411.452 67.112 411.068 66.28C410.705 65.4267 410.183 64.7653 409.5 64.296C408.817 63.8267 408.017 63.592 407.1 63.592C406.183 63.592 405.383 63.8267 404.7 64.296C404.017 64.7653 403.484 65.4267 403.1 66.28C402.737 67.112 402.556 68.0827 402.556 69.192C402.556 70.3227 402.737 71.304 403.1 72.136C403.484 72.968 404.017 73.6187 404.7 74.088C405.383 74.5573 406.183 74.792 407.1 74.792ZM426 84.072C424.528 84.072 423.248 83.9013 422.16 83.56C421.093 83.24 420.272 82.76 419.696 82.12C419.12 81.5013 418.832 80.7333 418.832 79.816C418.832 79.176 419.045 78.5573 419.472 77.96C419.898 77.384 420.528 76.872 421.36 76.424V76.296C420.954 76.04 420.581 75.7093 420.24 75.304C419.92 74.8987 419.76 74.3653 419.76 73.704C419.76 73.192 419.92 72.68 420.24 72.168C420.581 71.6347 421.04 71.1653 421.616 70.76V70.632C421.082 70.2267 420.624 69.6827 420.24 69C419.856 68.3173 419.664 67.5173 419.664 66.6C419.664 65.4267 419.952 64.424 420.528 63.592C421.125 62.76 421.893 62.12 422.832 61.672C423.792 61.2027 424.837 60.968 425.968 60.968C426.864 60.968 427.653 61.096 428.336 61.352H434.767V63.848H430.96C431.28 64.1893 431.546 64.616 431.76 65.128C431.994 65.6187 432.112 66.1413 432.112 66.696C432.112 67.848 431.834 68.8187 431.28 69.608C430.746 70.3973 430.01 71.0053 429.072 71.432C428.154 71.8373 427.12 72.04 425.968 72.04C425.584 72.04 425.168 71.9973 424.72 71.912C424.293 71.8267 423.866 71.6987 423.44 71.528C423.098 71.7627 422.832 72.008 422.64 72.264C422.448 72.52 422.352 72.8187 422.352 73.16C422.352 73.7147 422.618 74.1307 423.152 74.408C423.685 74.664 424.453 74.792 425.456 74.792H428.784C430.81 74.792 432.325 75.08 433.328 75.656C434.352 76.232 434.864 77.192 434.864 78.536C434.864 79.5387 434.501 80.456 433.776 81.288C433.05 82.1413 432.026 82.8133 430.704 83.304C429.381 83.816 427.813 84.072 426 84.072ZM425.968 69.992C426.565 69.992 427.109 69.864 427.6 69.608C428.09 69.3307 428.485 68.936 428.784 68.424C429.082 67.912 429.232 67.304 429.232 66.6C429.232 65.9173 429.082 65.3307 428.784 64.84C428.485 64.328 428.09 63.9333 427.6 63.656C427.109 63.3573 426.565 63.208 425.968 63.208C425.37 63.208 424.816 63.3573 424.304 63.656C423.813 63.9333 423.418 64.328 423.12 64.84C422.821 65.3307 422.672 65.9173 422.672 66.6C422.672 67.304 422.821 67.912 423.12 68.424C423.418 68.936 423.813 69.3307 424.304 69.608C424.816 69.864 425.37 69.992 425.968 69.992ZM426.32 81.864C427.45 81.864 428.421 81.7253 429.232 81.448C430.042 81.192 430.661 80.8507 431.088 80.424C431.536 80.0187 431.76 79.5707 431.76 79.08C431.76 78.376 431.482 77.9067 430.928 77.672C430.373 77.4587 429.541 77.352 428.432 77.352H425.648C425.157 77.352 424.72 77.3307 424.336 77.288C423.952 77.2453 423.6 77.1813 423.28 77.096C422.618 77.4587 422.149 77.832 421.872 78.216C421.616 78.6213 421.488 79.0267 421.488 79.432C421.488 80.1787 421.904 80.7653 422.736 81.192C423.568 81.64 424.762 81.864 426.32 81.864ZM440.163 83.56C439.779 83.56 439.395 83.528 439.011 83.464C438.627 83.4 438.296 83.3253 438.019 83.24L438.659 80.776C438.851 80.84 439.064 80.8933 439.299 80.936C439.534 80.9787 439.768 81 440.003 81C441.048 81 441.891 80.712 442.531 80.136C443.171 79.56 443.672 78.8453 444.035 77.992L444.451 76.904L437.315 61.352H440.483L444.003 69.512C444.28 70.216 444.568 70.9627 444.867 71.752C445.187 72.52 445.507 73.2987 445.827 74.088H445.955C446.211 73.3413 446.478 72.5733 446.755 71.784C447.032 70.9733 447.299 70.216 447.555 69.512L450.659 61.352H453.667L446.979 77.992C446.574 79.1013 446.072 80.072 445.475 80.904C444.878 81.736 444.142 82.3867 443.267 82.856C442.414 83.3253 441.379 83.56 440.163 83.56ZM458.039 82.12L468.535 54.28H471.287L460.791 82.12H458.039ZM477.578 75.592V72.616L486.922 66.44V66.312L477.578 60.136V57.16L489.642 65.224V67.528L477.578 75.592Z" fill="#33F3FF"/>
<defs>
<linearGradient id="paint0_linear_2_1141" x1="0" y1="66" x2="569" y2="66" gradientUnits="userSpaceOnUse">
<stop stop-color="#47F4FF"/>
<stop offset="1" stop-color="#4CF1E7"/>
</linearGradient>
</defs>
</svg>
