<svg width="32" height="32" viewBox="0 0 32 32" fill="none" xmlns="http://www.w3.org/2000/svg">
<path d="M11.1562 24H7.52344V12.3203H11.1562V24ZM9.32031 10.7578C8.1875 10.7578 7.25 9.78125 7.25 8.60938C7.25 7.00781 8.96875 5.99219 10.375 6.8125C11.0391 7.16406 11.4297 7.86719 11.4297 8.60938C11.4297 9.78125 10.4922 10.7578 9.32031 10.7578ZM24.7109 24H21.1172V18.3359C21.1172 16.9688 21.0781 15.25 19.2031 15.25C17.3281 15.25 17.0547 16.6953 17.0547 18.2188V24H13.4219V12.3203H16.8984V13.9219H16.9375C17.4453 13.0234 18.6172 12.0469 20.375 12.0469C24.0469 12.0469 24.75 14.4688 24.75 17.5938V24H24.7109Z" fill="#F5F5F5"/>
</svg>
