<svg width="24" height="24" viewBox="0 0 24 24" fill="none" xmlns="http://www.w3.org/2000/svg">
<path d="M21.9688 16.0938L21.2188 19.25C21.125 19.7188 20.75 20.0312 20.2812 20.0312C12.4062 20 6 13.5938 6 5.71875C6 5.25 6.28125 4.875 6.75 4.78125L9.90625 4.03125C10.3438 3.9375 10.8125 4.1875 11 4.59375L12.4688 8C12.625 8.40625 12.5312 8.875 12.1875 9.125L10.5 10.5C11.5625 12.6562 13.3125 14.4062 15.5 15.4688L16.875 13.7812C17.125 13.4688 17.5938 13.3438 18 13.5L21.4062 14.9688C21.8125 15.1875 22.0625 15.6562 21.9688 16.0938Z" fill="#B4B4B4"/>
</svg>
