<svg width="32" height="32" viewBox="0 0 32 32" fill="none" xmlns="http://www.w3.org/2000/svg">
<path d="M26.6953 11.3828C27.1641 13.0234 27.1641 16.5391 27.1641 16.5391C27.1641 16.5391 27.1641 20.0156 26.6953 21.6953C26.4609 22.6328 25.7188 23.3359 24.8203 23.5703C23.1406 24 16.5 24 16.5 24C16.5 24 9.82031 24 8.14062 23.5703C7.24219 23.3359 6.5 22.6328 6.26562 21.6953C5.79688 20.0156 5.79688 16.5391 5.79688 16.5391C5.79688 16.5391 5.79688 13.0234 6.26562 11.3828C6.5 10.4453 7.24219 9.70312 8.14062 9.46875C9.82031 9 16.5 9 16.5 9C16.5 9 23.1406 9 24.8203 9.46875C25.7188 9.70312 26.4609 10.4453 26.6953 11.3828ZM14.3125 19.7031L19.8594 16.5391L14.3125 13.375V19.7031Z" fill="#F5F5F5"/>
</svg>
